<?xml version="1.0" encoding="UTF-8"?>
<svg version="1.1" xmlns="http://www.w3.org/2000/svg" width="1024" height="1024">
<path d="M0 0 C337.92 0 675.84 0 1024 0 C1024 337.92 1024 675.84 1024 1024 C686.08 1024 348.16 1024 0 1024 C0 686.08 0 348.16 0 0 Z " fill="#FDFDFD" transform="translate(0,0)"/>
<path d="M0 0 C0.33 0.66 0.66 1.32 1 2 C-0.11711436 4.07599722 -1.29254252 6.01867436 -2.5625 8 C-6.93049498 15.04001448 -10.90834041 22.25633559 -14.8125 29.5625 C-15.4103833 30.68084229 -16.0082666 31.79918457 -16.62426758 32.95141602 C-17.8319996 35.21126875 -19.03943958 37.47127759 -20.24658203 39.73144531 C-22.88494533 44.64963075 -25.56700427 49.54356556 -28.25 54.4375 C-32.43788612 62.08329275 -36.52229803 69.77711289 -40.5546875 77.50585938 C-43.35387945 82.84438343 -46.32841327 88.05150349 -49.4140625 93.23046875 C-51.61253546 97.069674 -53.53986416 101.02433085 -55.4453125 105.015625 C-57.42396424 108.8138409 -59.68926016 112.39692804 -62 116 C-45.65242996 117.92327108 -45.65242996 117.92327108 -30.72412109 113.29736328 C-27.16762747 108.85859151 -25.18106378 103.68623438 -23.09814453 98.43798828 C-21.40834662 94.68647163 -19.02968532 91.74633714 -16.3125 88.6875 C-15.85319092 88.16679932 -15.39388184 87.64609863 -14.9206543 87.10961914 C-6.01968094 77.32353724 -6.01968094 77.32353724 0.5 76.625 C1.325 76.74875 2.15 76.8725 3 77 C3.92980335 85.90200611 2.18072602 91.73060183 -3 99 C-7.01656659 103.92646841 -11.21485912 108.70138841 -16.1875 112.6875 C-19.91687806 115.75387752 -22.885438 119.32773406 -26 123 C-27.57063688 124.57063688 -29.45175144 124.30315463 -31.625 124.5625 C-36.94856865 125.57833161 -39.44327261 127.66705021 -42.7265625 131.890625 C-44.34209051 134.56665299 -44.92205897 136.88235881 -45 140 C-44.34 140 -43.68 140 -43 140 C-42.95875 139.319375 -42.9175 138.63875 -42.875 137.9375 C-41.58633444 133.61126561 -39.50211825 130.85134149 -36 128 C-34.21273049 127.24934681 -32.39576832 126.56753156 -30.5625 125.9375 C-24.78905699 123.77157119 -21.18866917 120.74796428 -16.875 116.5 C-2.71242925 102.59275965 19.35934347 83.88036291 40.25 83.75 C41.4875 83.8325 42.725 83.915 44 84 C44.55685572 87.73888843 44.63203271 89.90022442 42.72265625 93.22265625 C31.03415049 108.67480786 15.18915619 115.32666222 -2.64697266 121.20507812 C-7.83154185 122.95657816 -12.91291321 124.98558789 -18 127 C-12.71258473 126.38847948 -7.67221115 125.22967686 -2.51318359 123.93017578 C20.08393709 118.24556068 47.22489498 111.66950857 70 120 C70.99 120.66 71.98 121.32 73 122 C72.68080741 125.72391351 71.68311203 128.18665814 68.89453125 130.7421875 C57.44404015 138.34436922 42.25485997 140.52116785 28.875 140.3125 C27.70372559 140.30412109 26.53245117 140.29574219 25.32568359 140.28710938 C16.96503416 140.17243856 8.75613284 139.57926473 0.4765625 138.4375 C-2.40690848 138.07463624 -5.1017768 137.91047959 -8 138 C-7.28972656 138.18175781 -6.57945312 138.36351562 -5.84765625 138.55078125 C-4.92855469 138.80214844 -4.00945312 139.05351562 -3.0625 139.3125 C-2.14597656 139.55613281 -1.22945312 139.79976562 -0.28515625 140.05078125 C0.46894531 140.36402344 1.22304688 140.67726563 2 141 C2.33 141.99 2.66 142.98 3 144 C3.66 143.34 4.32 142.68 5 142 C8 143.625 8 143.625 11 146 C11.375 149.25 11.375 149.25 11 152 C11.66 150.68 12.32 149.36 13 148 C15.46800047 149.15173355 17.04783565 150.04783565 19 152 C19.125 155.625 19.125 155.625 19 159 C19.66 158.01 20.32 157.02 21 156 C23.90878214 157.06655345 24.83560524 157.67121048 26.25 160.5 C27 163 27 163 27 165 C27.99 165 28.98 165 30 165 C32.41685712 169.22949995 33.34833144 172.12335991 33 177 C29.30485671 178.84757164 25.95498242 178.71147832 22 178 C12.01424948 174.44520208 2.41905363 168.57623697 -5 161 C-5 160.34 -5 159.68 -5 159 C-5.66 159 -6.32 159 -7 159 C-1.41876755 173.06274745 3.81059061 183.18635335 17 191 C17.72251953 191.43296387 18.44503906 191.86592773 19.18945312 192.31201172 C23.72972488 195.00033052 28.33041439 197.54391926 33 200 C32.67 200.66 32.34 201.32 32 202 C23.05289672 199.58186398 15.35652949 194.49406831 8.0625 188.9375 C7.51907959 188.52628906 6.97565918 188.11507812 6.41577148 187.69140625 C1.0196104 183.47058837 -2.16658184 179.19221286 -4.7265625 172.859375 C-5.2009375 171.70695313 -5.6753125 170.55453125 -6.1640625 169.3671875 C-6.88722656 167.57667969 -6.88722656 167.57667969 -7.625 165.75 C-8.59026631 163.36731631 -9.56131272 160.98696327 -10.5390625 158.609375 C-10.96396973 157.55717773 -11.38887695 156.50498047 -11.82666016 155.42089844 C-12.76150177 152.86515557 -12.76150177 152.86515557 -15 152 C-13.51164169 158.56230707 -11.88539821 164.86964116 -9.1953125 171.046875 C-8.23079483 173.42980102 -7.43698292 175.75247801 -6.6796875 178.203125 C-2.77174903 190.29198874 2.55242902 196.8910754 13 204 C13.65774414 204.45342773 14.31548828 204.90685547 14.99316406 205.37402344 C23.57605559 211.20273455 32.43277479 215.9699702 42 220 C42 220.66 42 221.32 42 222 C36.22627799 221.50317386 32.00924358 219.87590528 26.9375 217.125 C26.20015625 216.72933838 25.4628125 216.33367676 24.703125 215.92602539 C17.72937653 212.06030617 11.56946206 207.42723457 5.50878906 202.26953125 C4.12439535 201.10466923 2.70048537 199.98719776 1.2734375 198.875 C-4.49717768 194.21339555 -6.79478549 189.99585292 -9 183 C-9.68035659 181.10133044 -10.36093024 179.20272464 -11.04980469 177.30712891 C-12.05102025 174.54436043 -13.02532824 171.77222215 -14 169 C-14.50508057 193.2438674 -11.69183796 208.58388553 4.27734375 227.73046875 C6 230 6 230 6 232 C-4.11404179 227.63664127 -10.45505382 215.10211632 -15.1328125 205.73046875 C-17.51804629 199.67475385 -17.53579651 193.19743787 -17.7890625 186.76953125 C-17.91061208 183.14832574 -17.91061208 183.14832574 -18.51953125 180.22265625 C-19.24416982 175.36227558 -19.10364672 170.53095512 -19.0625 165.625 C-19.05798828 164.60277344 -19.05347656 163.58054687 -19.04882812 162.52734375 C-19.037103 160.01816806 -19.02069176 157.5091151 -19 155 C-20.65 155 -22.3 155 -24 155 C-23.9371582 155.5669458 -23.87431641 156.1338916 -23.80957031 156.71801758 C-22.22057596 173.377316 -25.79073977 182.97094725 -36 196 C-36.7734375 197.04542969 -37.546875 198.09085938 -38.34375 199.16796875 C-42.49038688 204.52919889 -47.18700219 209.36463973 -51.9375 214.1875 C-52.505896 214.7654834 -53.07429199 215.3434668 -53.65991211 215.93896484 C-57.75494375 220 -57.75494375 220 -60 220 C-59.44009795 216.47413032 -58.44080611 215.25122094 -55.625 213.125 C-50.06911913 208.43907912 -45.77550866 202.90775098 -41.51464844 197.06884766 C-40.47510512 195.64894275 -39.4201586 194.2402256 -38.35253906 192.84130859 C-28.93715126 180.37367969 -26.19344595 170.58820808 -27 155 C-28.32 155 -29.64 155 -31 155 C-31.17015625 155.68964844 -31.3403125 156.37929688 -31.515625 157.08984375 C-35.69929893 173.31270703 -43.37653244 183.31182501 -58 192 C-60.78664704 193.53171467 -63.60172784 194.9989728 -66.4375 196.4375 C-67.13633301 196.79215332 -67.83516602 197.14680664 -68.55517578 197.51220703 C-71.54298191 198.97953078 -73.62807352 200 -77 200 C-77 199.34 -77 198.68 -77 198 C-76.48203857 197.74420166 -75.96407715 197.48840332 -75.43041992 197.22485352 C-65.05683326 192.05705521 -55.44481078 187.05960889 -47 179 C-46.32710937 178.401875 -45.65421875 177.80375 -44.9609375 177.1875 C-39.18422359 171.48453138 -36.67562429 163.79339839 -35 156 C-35.27446547 153.16477818 -35.27446547 153.16477818 -36 151 C-36.598125 151.94875 -37.19625 152.8975 -37.8125 153.875 C-40 157 -40 157 -43 159 C-46.1875 159.125 -46.1875 159.125 -49 159 C-49 159.66 -49 160.32 -49 161 C-50.328125 162.33984375 -50.328125 162.33984375 -52.25 163.9375 C-56.08037282 167.1891834 -59.80471355 170.53443724 -63.5 173.9375 C-64.31065918 174.68277954 -64.31065918 174.68277954 -65.13769531 175.44311523 C-66.42586684 176.6279431 -67.7130422 177.81385389 -69 179 C-69.66 178.67 -70.32 178.34 -71 178 C-70.43152344 177.31035156 -69.86304688 176.62070312 -69.27734375 175.91015625 C-67.66830469 173.95191005 -66.06441781 171.98942268 -64.46484375 170.0234375 C-62.94895227 168.16400801 -61.42255136 166.3130169 -59.87890625 164.4765625 C-55.32366717 158.93998958 -55.32366717 158.93998958 -54 152 C-54.1546875 150.5459375 -54.1546875 150.5459375 -54.3125 149.0625 C-53.84808913 144.51127349 -51.1385187 142.15720036 -48 139 C-52.06955395 141.9848249 -55.05181426 145.37261784 -58.0625 149.375 C-61.96778832 154.4603952 -65.98668137 159.40577075 -70.1875 164.25 C-74.14946815 168.82650815 -78.01005932 173.45435187 -81.765625 178.203125 C-84.68190247 181.85357023 -87.65199013 185.45820133 -90.625 189.0625 C-91.22554199 189.79057861 -91.82608398 190.51865723 -92.44482422 191.26879883 C-93.68081465 192.76674592 -94.91698186 194.26454717 -96.15332031 195.76220703 C-98.52558052 198.63689463 -100.89494137 201.51396207 -103.26391602 204.39135742 C-104.42305281 205.79924161 -105.5823959 207.20695598 -106.74194336 208.61450195 C-109.69919475 212.20429837 -112.65423601 215.7958784 -115.60546875 219.390625 C-121.3851172 226.42682114 -127.18326569 233.44365979 -133.08300781 240.37963867 C-135.32519667 243.01625576 -137.55500107 245.66170688 -139.76171875 248.328125 C-140.2112793 248.87106201 -140.66083984 249.41399902 -141.12402344 249.97338867 C-142.35388973 251.461344 -143.58133088 252.9513029 -144.80859375 254.44140625 C-146.78139233 256.74476288 -148.82220563 258.89165693 -151 261 C-149.66590642 257.45297374 -148.09092407 254.26093826 -146.1640625 251 C-145.60025879 250.04077637 -145.03645508 249.08155273 -144.45556641 248.09326172 C-143.85147949 247.07248535 -143.24739258 246.05170898 -142.625 245 C-141.35339183 242.83639271 -140.08257302 240.67232131 -138.8125 238.5078125 C-138.173125 237.41887695 -137.53375 236.32994141 -136.875 235.20800781 C-133.58943264 229.58660741 -130.35886837 223.9339921 -127.14819336 218.26953125 C-124.95601098 214.40418088 -122.74774045 210.55637464 -120.44140625 206.7578125 C-120.05710449 206.11602051 -119.67280273 205.47422852 -119.27685547 204.81298828 C-118.27160785 203.13997868 -117.25169036 201.47580705 -116.23046875 199.8125 C-114.81825693 197.11370917 -114.81825693 197.11370917 -115.0390625 194.39453125 C-119.11344113 184.24170971 -134.04282012 177.7240684 -143.3828125 173.453125 C-150.87696785 170.74745229 -159.15748762 169.98975916 -167.0078125 168.77587891 C-180.80679214 166.62129084 -192.24091288 163.3777215 -203 154 C-203.78503906 153.35804688 -204.57007813 152.71609375 -205.37890625 152.0546875 C-212.09599089 146.41100848 -217.24030005 140.54134083 -218.46484375 131.609375 C-218 128 -218 128 -215.31640625 125.515625 C-214.08067509 124.73519881 -212.82778725 123.98153585 -211.5625 123.25 C-210.17434231 122.39084608 -208.78632666 121.53146263 -207.3984375 120.671875 C-206.67237305 120.23423828 -205.94630859 119.79660156 -205.19824219 119.34570312 C-203.04951483 118.03031161 -200.94769339 116.66304559 -198.8515625 115.265625 C-177.8149231 101.2519334 -155.51530336 87.78620007 -129.6965332 86.52587891 C-121.57400782 86.4416391 -121.57400782 86.4416391 -114.6484375 82.9375 C-113.19885913 80.4011677 -113.19885913 80.4011677 -112.16796875 77.67578125 C-109.64335674 71.89197114 -104.05402122 68.31457358 -98.875 65 C-92.1322564 62.62667999 -83.63853121 62.67261863 -76.98046875 65.1015625 C-71.55271463 68.14501084 -68.09829749 71.62961768 -65 77 C-65 77.66 -65 78.32 -65 79 C-60.97624619 76.03966684 -57.99014538 72.706792 -55 68.75 C-54.02989455 67.49122416 -53.05848765 66.23345049 -52.0859375 64.9765625 C-51.5815918 64.32333008 -51.07724609 63.67009766 -50.55761719 62.99707031 C-47.9609172 59.66775904 -45.29415563 56.39631136 -42.625 53.125 C-41.80890259 52.12376099 -41.80890259 52.12376099 -40.97631836 51.10229492 C-39.8687844 49.7439002 -38.76095508 48.38574624 -37.65283203 47.02783203 C-36.02457952 45.03015621 -34.40021386 43.02939373 -32.77734375 41.02734375 C-23.85312326 30.02053397 -23.85312326 30.02053397 -19.38671875 24.63671875 C-12.70109492 16.57535283 -6.16706839 8.46748279 0 0 Z " fill="#31BCE5" transform="translate(586,319)"/>
<path d="M0 0 C4.2045347 2.97120452 6.9097463 5.91786821 9.375 10.4375 C9.74290711 13.46789281 9.6232486 14.99018412 8.1328125 17.67578125 C7.59398437 18.36027344 7.05515625 19.04476563 6.5 19.75 C5.96632813 20.44738281 5.43265625 21.14476562 4.8828125 21.86328125 C4.38523437 22.38277344 3.88765625 22.90226562 3.375 23.4375 C2.715 23.4375 2.055 23.4375 1.375 23.4375 C1.148125 22.220625 0.92125 21.00375 0.6875 19.75 C-0.68952895 14.1927046 -3.95570575 11.55036283 -8.625 8.4375 C-15.00793664 7.3547928 -20.3820736 8.72041432 -25.625 12.4375 C-29.297386 15.83326471 -31.57531648 19.90662065 -33.625 24.4375 C-33.295 24.7675 -32.965 25.0975 -32.625 25.4375 C-31.7175 25.375625 -30.81 25.31375 -29.875 25.25 C-25.81047046 25.48449209 -24.46813142 26.59436858 -21.625 29.4375 C-19.69022474 32.55724142 -19.37765083 34.91714144 -19.4375 38.5625 C-19.44394531 39.43132812 -19.45039063 40.30015625 -19.45703125 41.1953125 C-19.625 43.4375 -19.625 43.4375 -20.625 45.4375 C-18.645 45.1075 -16.665 44.7775 -14.625 44.4375 C-16.92276702 48.56737361 -19.7255082 52.07232801 -22.8125 55.625 C-27.04682531 60.54448665 -31.12216961 65.54918334 -35.06640625 70.70703125 C-35.58074219 71.27808594 -36.09507812 71.84914063 -36.625 72.4375 C-37.285 72.4375 -37.945 72.4375 -38.625 72.4375 C-38.625 73.0975 -38.625 73.7575 -38.625 74.4375 C-28.395 74.4375 -18.165 74.4375 -7.625 74.4375 C-13.02525994 85.89658816 -19.43515677 96.60612139 -26 107.43359375 C-30.00000903 114.03298753 -33.85493616 120.70438279 -37.625 127.4375 C-41.09189423 125.9472061 -43.3163985 123.9411472 -46 121.3125 C-59.53635121 108.89750333 -75.00217562 104.93956951 -92.6328125 102.21337891 C-106.43179214 100.05879084 -117.86591288 96.8152215 -128.625 87.4375 C-129.41003906 86.79554688 -130.19507813 86.15359375 -131.00390625 85.4921875 C-137.72099089 79.84850848 -142.86530005 73.97884083 -144.08984375 65.046875 C-143.625 61.4375 -143.625 61.4375 -140.94140625 58.953125 C-139.70567509 58.17269881 -138.45278725 57.41903585 -137.1875 56.6875 C-135.79934231 55.82834608 -134.41132666 54.96896263 -133.0234375 54.109375 C-132.29737305 53.67173828 -131.57130859 53.23410156 -130.82324219 52.78320312 C-128.67451483 51.46781161 -126.57269339 50.10054559 -124.4765625 48.703125 C-103.4399231 34.6894334 -81.14030336 21.22370007 -55.3215332 19.96337891 C-47.19900782 19.8791391 -47.19900782 19.8791391 -40.2734375 16.375 C-38.82385913 13.8386677 -38.82385913 13.8386677 -37.79296875 11.11328125 C-35.26835674 5.32947114 -29.67902122 1.75207358 -24.5 -1.5625 C-16.75890287 -4.28722183 -7.1437044 -4.00561536 0 0 Z " fill="#142A5C" transform="translate(511.625,385.5625)"/>
<path d="M0 0 C0.55685572 3.73888843 0.63203271 5.90022442 -1.27734375 9.22265625 C-12.96584951 24.67480786 -28.81084381 31.32666222 -46.64697266 37.20507812 C-51.83154185 38.95657816 -56.91291321 40.98558789 -62 43 C-56.71258473 42.38847948 -51.67221115 41.22967686 -46.51318359 39.93017578 C-23.91606291 34.24556068 3.22489498 27.66950857 26 36 C26.99 36.66 27.98 37.32 29 38 C28.68080741 41.72391351 27.68311203 44.18665814 24.89453125 46.7421875 C13.44404015 54.34436922 -1.74514003 56.52116785 -15.125 56.3125 C-16.88191162 56.29993164 -16.88191162 56.29993164 -18.67431641 56.28710938 C-27.03496584 56.17243856 -35.24386716 55.57926473 -43.5234375 54.4375 C-46.40690848 54.07463624 -49.1017768 53.91047959 -52 54 C-51.28972656 54.18175781 -50.57945312 54.36351562 -49.84765625 54.55078125 C-48.46900391 54.92783203 -48.46900391 54.92783203 -47.0625 55.3125 C-46.14597656 55.55613281 -45.22945312 55.79976563 -44.28515625 56.05078125 C-43.53105469 56.36402344 -42.77695312 56.67726563 -42 57 C-41.67 57.99 -41.34 58.98 -41 60 C-40.01 59.01 -40.01 59.01 -39 58 C-36 59.625 -36 59.625 -33 62 C-32.625 65.25 -32.625 65.25 -33 68 C-32.01 66.02 -32.01 66.02 -31 64 C-28.53199953 65.15173355 -26.95216435 66.04783565 -25 68 C-24.875 71.625 -24.875 71.625 -25 75 C-24.01 73.515 -24.01 73.515 -23 72 C-20.09121786 73.06655345 -19.16439476 73.67121048 -17.75 76.5 C-17 79 -17 79 -17 81 C-16.01 81 -15.02 81 -14 81 C-11.58314288 85.22949995 -10.65166856 88.12335991 -11 93 C-14.69514329 94.84757164 -18.04501758 94.71147832 -22 94 C-31.98575052 90.44520208 -41.58094637 84.57623697 -49 77 C-49 76.34 -49 75.68 -49 75 C-49.66 75 -50.32 75 -51 75 C-45.41876755 89.06274745 -40.18940939 99.18635335 -27 107 C-26.27748047 107.43296387 -25.55496094 107.86592773 -24.81054688 108.31201172 C-20.27027512 111.00033052 -15.66958561 113.54391926 -11 116 C-11.33 116.66 -11.66 117.32 -12 118 C-20.94710328 115.58186398 -28.64347051 110.49406831 -35.9375 104.9375 C-36.48092041 104.52628906 -37.02434082 104.11507812 -37.58422852 103.69140625 C-42.9803896 99.47058837 -46.16658184 95.19221286 -48.7265625 88.859375 C-49.2009375 87.70695312 -49.6753125 86.55453125 -50.1640625 85.3671875 C-50.64617187 84.17351562 -51.12828125 82.97984375 -51.625 81.75 C-52.59026631 79.36731631 -53.56131272 76.98696327 -54.5390625 74.609375 C-54.96396973 73.55717773 -55.38887695 72.50498047 -55.82666016 71.42089844 C-56.76150177 68.86515557 -56.76150177 68.86515557 -59 68 C-57.51164169 74.56230707 -55.88539821 80.86964116 -53.1953125 87.046875 C-52.23079483 89.42980102 -51.43698292 91.75247801 -50.6796875 94.203125 C-46.77174903 106.29198874 -41.44757098 112.8910754 -31 120 C-30.34225586 120.45342773 -29.68451172 120.90685547 -29.00683594 121.37402344 C-20.42394441 127.20273455 -11.56722521 131.9699702 -2 136 C-2 136.66 -2 137.32 -2 138 C-7.77372201 137.50317386 -11.99075642 135.87590528 -17.0625 133.125 C-17.79984375 132.72933838 -18.5371875 132.33367676 -19.296875 131.92602539 C-26.27062347 128.06030617 -32.43053794 123.42723457 -38.49121094 118.26953125 C-39.87560465 117.10466923 -41.29951463 115.98719776 -42.7265625 114.875 C-48.49717768 110.21339555 -50.79478549 105.99585292 -53 99 C-53.68035659 97.10133044 -54.36093024 95.20272464 -55.04980469 93.30712891 C-56.05102025 90.54436043 -57.02532824 87.77222215 -58 85 C-58.50508057 109.2438674 -55.69183796 124.58388553 -39.72265625 143.73046875 C-38 146 -38 146 -38 148 C-48.11404179 143.63664127 -54.45505382 131.10211632 -59.1328125 121.73046875 C-61.51804629 115.67475385 -61.53579651 109.19743787 -61.7890625 102.76953125 C-61.91061208 99.14832574 -61.91061208 99.14832574 -62.51953125 96.22265625 C-63.24416982 91.36227558 -63.10364672 86.53095512 -63.0625 81.625 C-63.05798828 80.60277344 -63.05347656 79.58054687 -63.04882812 78.52734375 C-63.037103 76.01816806 -63.02069176 73.5091151 -63 71 C-64.65 71 -66.3 71 -68 71 C-67.9371582 71.5669458 -67.87431641 72.1338916 -67.80957031 72.71801758 C-66.22057596 89.377316 -69.79073977 98.97094725 -80 112 C-80.7734375 113.04542969 -81.546875 114.09085938 -82.34375 115.16796875 C-86.49038688 120.52919889 -91.18700219 125.36463973 -95.9375 130.1875 C-96.505896 130.7654834 -97.07429199 131.3434668 -97.65991211 131.93896484 C-101.75494375 136 -101.75494375 136 -104 136 C-103.44009795 132.47413032 -102.44080611 131.25122094 -99.625 129.125 C-94.06911913 124.43907912 -89.77550866 118.90775098 -85.51464844 113.06884766 C-84.47510512 111.64894275 -83.4201586 110.2402256 -82.35253906 108.84130859 C-72.93715126 96.37367969 -70.19344595 86.58820808 -71 71 C-72.32 71 -73.64 71 -75 71 C-75.17015625 71.68964844 -75.3403125 72.37929688 -75.515625 73.08984375 C-79.69929893 89.31270703 -87.37653244 99.31182501 -102 108 C-104.78664704 109.53171467 -107.60172784 110.9989728 -110.4375 112.4375 C-111.13633301 112.79215332 -111.83516602 113.14680664 -112.55517578 113.51220703 C-115.54298191 114.97953078 -117.62807352 116 -121 116 C-121 115.34 -121 114.68 -121 114 C-120.48203857 113.74420166 -119.96407715 113.48840332 -119.43041992 113.22485352 C-109.05683326 108.05705521 -99.44481078 103.05960889 -91 95 C-90.32710937 94.401875 -89.65421875 93.80375 -88.9609375 93.1875 C-83.18422359 87.48453138 -80.67562429 79.79339839 -79 72 C-79.27446547 69.16477818 -79.27446547 69.16477818 -80 67 C-80.8971875 68.423125 -80.8971875 68.423125 -81.8125 69.875 C-84 73 -84 73 -87 75 C-90.1875 75.125 -90.1875 75.125 -93 75 C-93 75.66 -93 76.32 -93 77 C-94.328125 78.33984375 -94.328125 78.33984375 -96.25 79.9375 C-100.08037282 83.1891834 -103.80471355 86.53443724 -107.5 89.9375 C-108.31065918 90.68277954 -108.31065918 90.68277954 -109.13769531 91.44311523 C-110.42586684 92.6279431 -111.7130422 93.81385389 -113 95 C-113.66 94.67 -114.32 94.34 -115 94 C-114.14728516 92.96552734 -114.14728516 92.96552734 -113.27734375 91.91015625 C-111.66830469 89.95191005 -110.06441781 87.98942268 -108.46484375 86.0234375 C-106.94895227 84.16400801 -105.42255136 82.3130169 -103.87890625 80.4765625 C-98.76660135 74.24826588 -97.80814872 70.05775358 -98 62 C-96.02 61.505 -96.02 61.505 -94 61 C-93.01 64.465 -93.01 64.465 -92 68 C-91.01 68 -90.02 68 -89 68 C-89 66.68 -89 65.36 -89 64 C-90.32 63.34 -91.64 62.68 -93 62 C-92.34 60.02 -91.68 58.04 -91 56 C-89.68 56 -88.36 56 -87 56 C-86.95875 55.319375 -86.9175 54.63875 -86.875 53.9375 C-85.58633444 49.61126561 -83.50211825 46.85134149 -80 44 C-78.21273049 43.24934681 -76.39576832 42.56753156 -74.5625 41.9375 C-68.78905699 39.77157119 -65.18866917 36.74796428 -60.875 32.5 C-45.55437527 17.45558368 -22.66362245 -1.51090816 0 0 Z " fill="#1A3062" transform="translate(630,403)"/>
<path d="M0 0 C1.06283203 -0.02255859 2.12566406 -0.04511719 3.22070312 -0.06835938 C10.7221303 0.03003536 10.7221303 0.03003536 14.01904297 2.49169922 C17.9375 6.91591192 17.9375 6.91591192 17.9375 9.9375 C19.10667969 9.87949219 20.27585937 9.82148437 21.48046875 9.76171875 C23.0286058 9.71480551 24.57678617 9.66930702 26.125 9.625 C26.89392578 9.58310547 27.66285156 9.54121094 28.45507812 9.49804688 C29.20595703 9.48193359 29.95683594 9.46582031 30.73046875 9.44921875 C31.4164917 9.42303467 32.10251465 9.39685059 32.80932617 9.36987305 C36.41735103 10.33220617 37.74863217 11.93942718 39.9375 14.9375 C40.65929785 18.39916195 40.61486168 21.78675574 40.56640625 25.3125 C40.56881821 26.31458496 40.57123016 27.31666992 40.57371521 28.34912109 C40.57273744 30.46390752 40.55936062 32.57871975 40.53442383 34.69335938 C40.50011494 37.92666752 40.51376937 41.15724199 40.53320312 44.390625 C40.52630446 46.44792828 40.5166319 48.50522451 40.50390625 50.5625 C40.51134605 52.00955322 40.51134605 52.00955322 40.51893616 53.48583984 C40.44310627 57.81660652 40.34728895 60.27555337 38.02709961 64.0234375 C34.5075602 67.24731751 32.251812 67.07553726 27.54760742 67.11450195 C26.89210403 67.12107315 26.23660065 67.12764435 25.56123352 67.13441467 C23.38847746 67.15415056 21.21579054 67.16581117 19.04296875 67.17578125 C17.92975974 67.18189454 17.92975974 67.18189454 16.79406166 67.18813133 C12.86555891 67.20899391 8.9370911 67.22329444 5.00854492 67.23266602 C0.95305878 67.24372745 -3.10187821 67.27812302 -7.1571703 67.31783772 C-10.27732861 67.34399875 -13.39735602 67.35235738 -16.51761436 67.35594749 C-18.01233311 67.3608153 -19.50704593 67.37243498 -21.00165749 67.39098549 C-23.09635377 67.41536663 -25.18962874 67.41441488 -27.28442383 67.4074707 C-29.07073967 67.41627007 -29.07073967 67.41627007 -30.8931427 67.42524719 C-34.69792807 66.83971101 -36.34022588 65.60473552 -39.0625 62.9375 C-40.21687669 60.62874662 -40.21281567 59.24552545 -40.25537109 56.67480469 C-40.27143402 55.79338806 -40.28749695 54.91197144 -40.30404663 54.00384521 C-40.3485356 49.96595019 -40.38957268 45.92821966 -40.41259766 41.89013672 C-40.4291444 39.76209569 -40.45641737 37.63410993 -40.49462891 35.50634766 C-40.54947798 32.43623047 -40.57128539 29.3674166 -40.5859375 26.296875 C-40.60860687 25.34979675 -40.63127625 24.40271851 -40.65463257 23.42694092 C-40.64061539 19.02990685 -40.51441133 15.88022674 -37.76367188 12.32275391 C-34.28429185 9.25030788 -31.59970381 9.3150867 -27.1875 9.5625 C-26.50558594 9.60890625 -25.82367188 9.6553125 -25.12109375 9.703125 C-22.87880439 9.72875116 -21.19659586 9.65278417 -19.0625 8.9375 C-17.35209927 7.1415463 -17.35209927 7.1415463 -15.80859375 4.95703125 C-11.43155051 -0.63115975 -6.71063718 -0.22464093 0 0 Z " fill="#172D63" transform="translate(512.0625,555.0625)"/>
<path d="M0 0 C0.85905945 -0.00698914 1.7181189 -0.01397827 2.60321045 -0.0211792 C19.56733016 -0.09778586 34.95217233 3.29462615 51 8.625 C51 13.47230147 49.99906334 14.37524295 46.875 17.9375 C46.10929688 18.84113281 45.34359375 19.74476563 44.5546875 20.67578125 C42 22.625 42 22.625 39.3527832 22.37402344 C36.23157495 21.67673465 33.13062955 20.91790697 30.02958679 20.1363678 C20.4572577 17.78914282 11.3835944 17.02676285 1.5480957 17.15844727 C-0.82996343 17.18771493 -3.20581684 17.17892324 -5.58398438 17.16601562 C-14.7842849 17.17904612 -23.09387473 18.10516659 -32 20.625 C-33.22074219 20.91761719 -34.44148438 21.21023438 -35.69921875 21.51171875 C-70.47481849 30.83067031 -96.45014244 53.58092631 -114.68359375 84.0859375 C-116.15572313 86.92535619 -117.21364405 89.81020205 -118.3125 92.8125 C-120.87012547 99.16190673 -124.29448255 102.0536074 -130 105.625 C-131.49853516 106.60339844 -131.49853516 106.60339844 -133.02734375 107.6015625 C-135.66711636 109.30705265 -138.32300604 110.97877381 -141 112.625 C-144.00715883 103.60352351 -136.15241363 88.99956776 -132.10400391 80.7578125 C-114.448019 46.64841751 -83.96580537 18.40815353 -47 6.625 C-46.16758789 6.35139648 -45.33517578 6.07779297 -44.47753906 5.79589844 C-29.67828545 1.13599856 -15.40059523 0.04013207 0 0 Z " fill="#31BBE1" transform="translate(513,324.375)"/>
<path d="M0 0 C1.59789529 1.42421102 3.19567077 2.84855661 4.79296875 4.2734375 C6.95834966 6.08285182 6.95834966 6.08285182 9.55078125 7.2890625 C13.14500934 9.19533459 16.18992253 10.91076642 17.72265625 14.86376953 C18.74983216 18.79918211 19.36075213 22.79524947 20.0234375 26.8046875 C24.71305312 54.25182244 42.93521461 80.61572319 65 97 C64.42176904 101.06225548 63.10882263 103.84762346 60.9375 107.3125 C60.11572266 108.63701172 60.11572266 108.63701172 59.27734375 109.98828125 C58.85582031 110.65214844 58.43429687 111.31601562 58 112 C51.70657885 108.84496479 47.17437427 104.67846947 42.25 99.6875 C41.45795166 98.88715332 40.66590332 98.08680664 39.84985352 97.26220703 C33.10974297 90.32885385 27.20487947 83.14527044 22 75 C21.60522461 74.38511719 21.21044922 73.77023437 20.80371094 73.13671875 C11.4488251 58.26129534 4.70461601 41.38681721 2 24 C1.79761719 22.72253906 1.59523438 21.44507813 1.38671875 20.12890625 C0.40078312 13.36149774 -0.2398643 6.83613265 0 0 Z " fill="#192B61" transform="translate(368,469)"/>
<path d="M0 0 C5.8769489 3.50091683 10.08281265 7.47047979 12 14.19140625 C12.82187418 20.90058325 12.93385254 27.46362625 9.40625 33.41015625 C5.89584664 37.85666717 1.36416961 42.17508718 -4 44.19140625 C-12.00598372 44.98462584 -20.44103669 45.48542663 -27 40.19140625 C-32.35188863 35.34279155 -35.39025761 29.91126398 -36.31640625 22.7421875 C-36.60253961 16.71492667 -35.65571104 12.05272413 -32 7.19140625 C-22.81826607 -2.46997049 -12.54092364 -6.42722336 0 0 Z " fill="#212C5C" transform="translate(716,679.80859375)"/>
<path d="M0 0 C5.81610977 3.25998509 9.76174078 7.71504998 13.1875 13.375 C15.21611799 22.84188395 13.01248927 29.68335082 8.0625 37.75 C2.3450435 43.31293065 -2.71450457 45.34291139 -10.75 45.625 C-17.31784939 45.36859747 -22.30414699 44.49153666 -27.25 40 C-33.81975531 32.03539218 -35.09760861 25.21973812 -34.25 15 C-32.56494741 8.70643008 -28.53530434 4.6020864 -23.25 1 C-15.80154668 -3.29718461 -7.80362517 -3.51578851 0 0 Z " fill="#202C5B" transform="translate(519.25,679)"/>
<path d="M0 0 C28.99141026 10.72213737 51.43783069 40.74144336 64 68 C65.23370681 70.87169387 66.38877748 73.76637212 67.5 76.6875 C67.75555664 77.359021 68.01111328 78.03054199 68.27441406 78.72241211 C69.48466207 82.05910503 70 84.39636894 70 88 C64.39 87.67 58.78 87.34 53 87 C49.35278515 78.39257294 49.35278515 78.39257294 51 74 C51.68123101 72.68423527 52.36936383 71.37203226 53.0625 70.0625 C54.88580211 66.52236598 55.62821716 64.0385389 55 60 C53.64728554 56.8673981 52.7712915 55.39621139 49.71875 53.828125 C46.69703679 52.9077181 44.79554764 53.10418496 41.6875 53.5 C38.09472357 53.5673345 36.58272674 53.50007789 33.82421875 51.1328125 C31.7694325 48.48917968 29.88329896 45.76799384 28 43 C18.35930266 30.93029884 5.91460128 22.25493745 -7 14 C-5.6926925 10.56068166 -4.18963666 7.38699095 -2.375 4.1875 C-1.92898438 3.39730469 -1.48296875 2.60710937 -1.0234375 1.79296875 C-0.68570313 1.20128906 -0.34796875 0.60960937 0 0 Z " fill="#31B1DD" transform="translate(582,343)"/>
<path d="M0 0 C5.9303851 2.61906112 9.65884131 7.68877638 12.5078125 13.38671875 C13.87029745 26.5286622 13.87029745 26.5286622 9.8203125 32.01171875 C5.39431659 36.87408046 0.97717113 40.87637676 -5.75 41.64453125 C-11.87052591 41.92528932 -16.50688227 41.04546207 -21.4921875 37.38671875 C-26.04588217 33.11636508 -29.08617309 28.85200456 -29.828125 22.51953125 C-29.91506348 15.82526832 -29.65299416 11.72108626 -25.4921875 6.38671875 C-17.96550541 -0.98909443 -10.56249456 -2.59923455 0 0 Z " fill="#36C1E4" transform="translate(520.4921875,572.61328125)"/>
<path d="M0 0 C4.125 -0.0825 8.25 -0.165 12.5 -0.25 C13.78455078 -0.28641602 15.06910156 -0.32283203 16.39257812 -0.36035156 C23.43623912 -0.4282898 28.05431108 0.12969306 34 4 C36.93166515 7.22483167 38.23231887 9.69940347 38.4375 14 C38.15857607 19.0398669 36.22827483 22.54142364 33 26.375 C31 28 31 28 28 28 C29.269376 29.91763215 30.54055945 31.83406793 31.8125 33.75 C32.52019531 34.81734375 33.22789062 35.8846875 33.95703125 36.984375 C35.17393863 38.78065128 36.42987409 40.55283142 37.76171875 42.265625 C39 44 39 44 39 46 C35.45706174 46.71875182 32.51921886 46.91479695 29 46 C25.13294183 42.24106681 22.05983124 37.72791345 20.1015625 32.6875 C19.10132756 30.73996084 19.10132756 30.73996084 16.6171875 30.390625 C15.25980469 30.32101562 15.25980469 30.32101562 13.875 30.25 C12.26625 30.1675 10.6575 30.085 9 30 C9 35.28 9 40.56 9 46 C6.03 46 3.06 46 0 46 C0 30.82 0 15.64 0 0 Z " fill="#202C5C" transform="translate(635,678)"/>
<path d="M0 0 C1.73017508 0.45451184 3.45909877 0.91378857 5.1875 1.375 C6.63189453 1.75785156 6.63189453 1.75785156 8.10546875 2.1484375 C10.82210207 2.94766296 13.39137175 3.9031362 16 5 C13.26940194 10.1556292 10.27683582 14.23508469 6.25 18.4375 C5.71415283 19.00388184 5.17830566 19.57026367 4.6262207 20.15380859 C3.56278289 21.27437918 2.49623451 22.39200778 1.42626953 23.50634766 C0.25584512 24.7320677 -0.89283326 25.97851783 -2.03515625 27.23046875 C-15.57963623 41.66799136 -34.568538 52.18837274 -53 59 C-53.66 59 -54.32 59 -55 59 C-55 53.39 -55 47.78 -55 42 C-52.586875 40.824375 -50.17375 39.64875 -47.6875 38.4375 C-36.85544171 33.05936054 -27.29689539 26.7447459 -18 19 C-17.38511719 18.52046875 -16.77023437 18.0409375 -16.13671875 17.546875 C-11.36776596 13.73171277 -7.70587633 9.16299737 -3.91796875 4.390625 C-2 2 -2 2 0 0 Z " fill="#1B2655" transform="translate(614,543)"/>
<path d="M0 0 C0.66 0 1.32 0 2 0 C2.32729193 14.03159241 2.44098345 27.33164907 -1 41 C-1.2165625 41.94101562 -1.433125 42.88203125 -1.65625 43.8515625 C-4.78540795 56.47994995 -9.88521086 68.5510331 -16 80 C-19.85025879 79.39644592 -22.86101159 78.23227397 -26.3125 76.4375 C-27.19550781 75.98246094 -28.07851563 75.52742187 -28.98828125 75.05859375 C-29.98408203 74.53458984 -29.98408203 74.53458984 -31 74 C-29.69238908 69.8292789 -28.10243339 65.98836607 -26.1875 62.0625 C-17.73273527 43.85382376 -14.72157835 25.88072773 -14 6 C-13.07316406 5.65066406 -12.14632812 5.30132812 -11.19140625 4.94140625 C-9.99386719 4.48636719 -8.79632812 4.03132813 -7.5625 3.5625 C-6.36753906 3.11003906 -5.17257812 2.65757812 -3.94140625 2.19140625 C-1.15554277 1.2855174 -1.15554277 1.2855174 0 0 Z " fill="#1A3C7B" transform="translate(654,457)"/>
<path d="M0 0 C5.6925 -0.12375 5.6925 -0.12375 11.5 -0.25 C12.68013672 -0.28641602 13.86027344 -0.32283203 15.07617188 -0.36035156 C21.58411533 -0.42846306 26.62706178 0.12048211 32 4 C35.36065034 7.52868285 36.25917122 10.24932124 36.4375 15 C36.18336007 20.64190637 34.78539236 24.26286149 30.6875 28.25 C25.62487374 31.54659384 21.10214711 32.24698259 15.125 32.125 C12.093125 32.063125 12.093125 32.063125 9 32 C9 36.62 9 41.24 9 46 C6.03 46 3.06 46 0 46 C0 30.82 0 15.64 0 0 Z " fill="#222D5C" transform="translate(271,678)"/>
<path d="M0 0 C8 0 8 0 10.109375 1.40625 C10.65078125 2.0971875 11.1921875 2.788125 11.75 3.5 C12.39710938 4.30695312 13.04421875 5.11390625 13.7109375 5.9453125 C14.46632813 6.95335937 15.22171875 7.96140625 16 9 C17.03340931 10.35190267 18.06729719 11.7034396 19.1015625 13.0546875 C26.70004544 23.05006815 26.70004544 23.05006815 30 28 C30.33 18.76 30.66 9.52 31 0 C33.97 0 36.94 0 40 0 C40 14.85 40 29.7 40 45 C32 45 32 45 30.14892578 43.84521484 C29.7517334 43.30590332 29.35454102 42.7665918 28.9453125 42.2109375 C28.4802832 41.60515869 28.01525391 40.99937988 27.53613281 40.37524414 C27.07045898 39.71516357 26.60478516 39.05508301 26.125 38.375 C25.62323242 37.70654053 25.12146484 37.03808105 24.60449219 36.34936523 C23.04156978 34.25192731 21.51852858 32.12973877 20 30 C19.00333222 28.62837693 18.00595548 27.25726868 17.0078125 25.88671875 C14.63255522 22.61639174 12.32135674 19.31134712 10 16 C9.67 25.9 9.34 35.8 9 46 C6.03 46 3.06 46 0 46 C0 30.82 0 15.64 0 0 Z " fill="#1F2A5A" transform="translate(542,678)"/>
<path d="M0 0 C11.22 0 22.44 0 34 0 C34 2.64 34 5.28 34 8 C26.08 8 18.16 8 10 8 C10 11.3 10 14.6 10 18 C17.26 18 24.52 18 32 18 C32 20.97 32 23.94 32 27 C24.74 27 17.48 27 10 27 C10 30.3 10 33.6 10 37 C18.25 37 26.5 37 35 37 C35 39.97 35 42.94 35 46 C23.45 46 11.9 46 0 46 C0 30.82 0 15.64 0 0 Z " fill="#192555" transform="translate(315,678)"/>
<path d="M0 0 C4.19357451 2.26214903 4.19357451 2.26214903 5.375 4.625 C3.395 7.595 3.395 7.595 1.375 10.625 C0.72273438 10.33625 0.07046875 10.0475 -0.6015625 9.75 C-7.35667415 6.78884133 -7.35667415 6.78884133 -14.625 6.625 C-16.90027322 8.44110691 -16.90027322 8.44110691 -16.6875 11.0625 C-15.81373482 13.93007114 -15.81373482 13.93007114 -12.625 15.25 C-10.5476573 16.01938618 -8.46159219 16.6729627 -6.3359375 17.296875 C-1.18885095 18.84616527 1.80218443 20.38228151 5.375 24.625 C5.705 24.955 6.035 25.285 6.375 25.625 C6.94207887 30.56137504 6.8893184 34.53701876 4.75 39.0625 C0.30037193 43.8634145 -3.45234078 44.83820676 -9.875 45.125 C-16.31901791 44.98475219 -21.37834104 43.40302014 -26.625 39.625 C-27.285 38.635 -27.945 37.645 -28.625 36.625 C-26.645 34.15 -26.645 34.15 -24.625 31.625 C-22.08296602 32.09574703 -20.6103529 32.63576993 -18.5 34.1875 C-14.30794826 36.28352587 -10.23824088 36.04958146 -5.625 35.625 C-4.635 35.13 -4.635 35.13 -3.625 34.625 C-3.625 32.645 -3.625 30.665 -3.625 28.625 C-4.79417969 28.24988281 -5.96335937 27.87476563 -7.16796875 27.48828125 C-8.71640645 26.97213535 -10.26456932 26.45516447 -11.8125 25.9375 C-12.58142578 25.69322266 -13.35035156 25.44894531 -14.14257812 25.19726562 C-19.64412182 23.33193536 -23.90106785 21.07286429 -26.625 15.625 C-27.19145111 10.98195813 -27.04623314 7.49986883 -25 3.25 C-18.19248746 -4.27409281 -8.7422052 -4.23333146 0 0 Z " fill="#222C5B" transform="translate(384.625,679.375)"/>
<path d="M0 0 C4.06763006 2.14259282 6.41828319 3.68903591 8.22265625 8.01953125 C6.57265625 9.66953125 4.92265625 11.31953125 3.22265625 13.01953125 C0.72904054 11.81571677 -1.45877458 10.56524403 -3.77734375 9.01953125 C-9.39643397 8.25911306 -14.20993529 7.89099716 -18.90234375 11.26953125 C-19.52109375 12.17703125 -20.13984375 13.08453125 -20.77734375 14.01953125 C-21.42703125 14.91671875 -21.42703125 14.91671875 -22.08984375 15.83203125 C-23.72161288 21.02402394 -23.30399052 25.46449402 -21.08984375 30.33203125 C-19.16369034 33.74810123 -17.56586537 35.64188703 -13.77734375 37.01953125 C-7.89087442 37.69502773 -4.62375908 36.85218226 0.36328125 33.69921875 C2.22265625 33.01953125 2.22265625 33.01953125 4.37890625 33.76953125 C6.57092528 35.25564585 7.25061747 36.5894343 8.22265625 39.01953125 C0.95661464 45.29474901 -4.16747141 46.74149381 -13.77734375 46.4609375 C-20.20655505 45.98175096 -24.24829524 42.92211961 -28.390625 38.16796875 C-33.7555498 31.06511056 -33.55053049 23.53347264 -32.77734375 15.01953125 C-30.74805587 9.06816678 -25.94587223 4.45791672 -20.77734375 1.01953125 C-14.40185912 -2.09333121 -6.68383166 -2.35955238 0 0 Z " fill="#202C5A" transform="translate(470.77734375,677.98046875)"/>
<path d="M0 0 C5.15699505 2.34408866 8.03494081 5.76720193 10 11 C10.8564929 16.88838866 9.20690021 21.151342 6 26 C1.97124828 29.78458495 -2.27579 30.46661135 -7.64453125 30.4140625 C-11.83391674 29.67761994 -14.32423922 27.16986433 -17 24 C-19.8192568 19.58725023 -19.66695549 14.07536859 -19 9 C-14.5815176 0.32083815 -9.24561714 -1.18086257 0 0 Z " fill="#F8F9F9" transform="translate(709,686)"/>
<path d="M0 0 C3.35076202 2.8580029 6.85394468 6.20619887 7.328125 10.765625 C7.4327631 15.89289184 7.08167565 19.42846369 4.125 23.8125 C-0.46540036 27.95505642 -3.39954048 29.24058637 -9.48828125 29.15234375 C-13.51925714 28.57837501 -16.13076751 26.75752999 -18.875 23.8125 C-21.72123748 18.94635204 -22.85539604 14.3571843 -21.875 8.8125 C-20.53376815 5.19982711 -18.61473706 2.48696614 -15.75 -0.125 C-10.53573838 -2.05200973 -5.15230477 -2.12812588 0 0 Z " fill="#FAFAFA" transform="translate(515.875,687.1875)"/>
<path d="M0 0 C0.92980335 8.90200611 -0.81927398 14.73060183 -6 22 C-10.01656659 26.92646841 -14.21485912 31.70138841 -19.1875 35.6875 C-22.91687806 38.75387752 -25.885438 42.32773406 -29 46 C-30.58272601 47.58272601 -32.38034003 47.34735747 -34.5625 47.5625 C-35.38878906 47.64628906 -36.21507812 47.73007812 -37.06640625 47.81640625 C-37.70449219 47.87699219 -38.34257813 47.93757813 -39 48 C-38.36771484 47.16855469 -38.36771484 47.16855469 -37.72265625 46.3203125 C-37.17480469 45.59585938 -36.62695312 44.87140625 -36.0625 44.125 C-35.51722656 43.40570313 -34.97195313 42.68640625 -34.41015625 41.9453125 C-32.96035376 40.05642921 -32.96035376 40.05642921 -32 38 C-32.99 38 -33.98 38 -35 38 C-30.4056259 25.74833573 -15.91267411 -2.38690112 0 0 Z " fill="#18336A" transform="translate(589,396)"/>
<path d="M0 0 C12.21 0 24.42 0 37 0 C37 2.97 37 5.94 37 9 C32.38 9 27.76 9 23 9 C23 21.21 23 33.42 23 46 C20.03 46 17.06 46 14 46 C14 33.46 14 20.92 14 8 C9.38 8 4.76 8 0 8 C0 5.36 0 2.72 0 0 Z " fill="#242E5C" transform="translate(590,678)"/>
<path d="M0 0 C5.9303851 2.61906112 9.65884131 7.68877638 12.5078125 13.38671875 C13.87029745 26.5286622 13.87029745 26.5286622 9.8203125 32.01171875 C5.39431659 36.87408046 0.97717113 40.87637676 -5.75 41.64453125 C-11.87052591 41.92528932 -16.50688227 41.04546207 -21.4921875 37.38671875 C-26.04588217 33.11636508 -29.08617309 28.85200456 -29.828125 22.51953125 C-29.91506348 15.82526832 -29.65299416 11.72108626 -25.4921875 6.38671875 C-17.96550541 -0.98909443 -10.56249456 -2.59923455 0 0 Z M-21.3046875 10.44921875 C-24.82474819 15.17615739 -25.16721094 18.58722156 -24.4921875 24.38671875 C-23.15243555 28.32176161 -20.9123326 30.99658401 -17.8671875 33.82421875 C-12.5935178 36.2657325 -7.80115973 36.29328648 -2.2109375 34.76171875 C2.50841411 32.78945241 4.92051528 30.24817367 6.8828125 25.53515625 C8.32644307 20.57267618 8.26550534 16.84597904 5.8203125 12.13671875 C2.74461731 8.47913528 0.07455803 5.90896726 -4.4921875 4.38671875 C-11.62163646 3.9192139 -16.45947238 4.78723879 -21.3046875 10.44921875 Z " fill="#F1F5F7" transform="translate(520.4921875,572.61328125)"/>
<path d="M0 0 C12.21 0 24.42 0 37 0 C37 2.64 37 5.28 37 8 C32.38 8 27.76 8 23 8 C23 20.21 23 32.42 23 45 C20.36 45 17.72 45 15 45 C15 32.79 15 20.58 15 8 C10.05 8 5.1 8 0 8 C0 5.36 0 2.72 0 0 Z " fill="#1C2859" transform="translate(396,678)"/>
<path d="M0 0 C2.97 0 5.94 0 9 0 C9 12.21 9 24.42 9 37 C16.59 37 24.18 37 32 37 C32 39.64 32 42.28 32 45 C21.44 45 10.88 45 0 45 C0 30.15 0 15.3 0 0 Z " fill="#222D5B" transform="translate(738,678)"/>
<path d="M0 0 C2.0625 0.4375 2.0625 0.4375 4 1 C3.67 1.66 3.34 2.32 3 3 C2.34 2.67 1.68 2.34 1 2 C2.48835831 8.56230707 4.11460179 14.86964116 6.8046875 21.046875 C7.76920517 23.42980102 8.56301708 25.75247801 9.3203125 28.203125 C13.22825097 40.29198874 18.55242902 46.8910754 29 54 C29.65774414 54.45342773 30.31548828 54.90685547 30.99316406 55.37402344 C39.57605559 61.20273455 48.43277479 65.9699702 58 70 C58 70.66 58 71.32 58 72 C52.22627799 71.50317386 48.00924358 69.87590528 42.9375 67.125 C41.83148437 66.53150757 41.83148437 66.53150757 40.703125 65.92602539 C33.72937653 62.06030617 27.56946206 57.42723457 21.50878906 52.26953125 C20.12439535 51.10466923 18.70048537 49.98719776 17.2734375 48.875 C11.50282232 44.21339555 9.20521451 39.99585292 7 33 C6.31964341 31.10133044 5.63906976 29.20272464 4.95019531 27.30712891 C3.94897975 24.54436043 2.97467176 21.77222215 2 19 C1.49491943 43.2438674 4.30816204 58.58388553 20.27734375 77.73046875 C22 80 22 80 22 82 C11.88595821 77.63664127 5.54494618 65.10211632 0.8671875 55.73046875 C-1.51804629 49.67475385 -1.53579651 43.19743787 -1.7890625 36.76953125 C-1.91364733 33.13855452 -1.91364733 33.13855452 -2.51953125 30.16015625 C-3.20621319 25.64368723 -3.10478644 21.18543041 -3.0625 16.625 C-3.05798828 15.69816406 -3.05347656 14.77132813 -3.04882812 13.81640625 C-3.03711574 11.54420291 -3.02071372 9.27213612 -3 7 C-2.34 6.67 -1.68 6.34 -1 6 C-1.0309375 4.7934375 -1.0309375 4.7934375 -1.0625 3.5625 C-1 1 -1 1 0 0 Z " fill="#2D3D69" transform="translate(570,469)"/>
<path d="M0 0 C2.125 0.375 2.125 0.375 4 1 C4.69921875 2.71875 4.69921875 2.71875 5 5 C3.70703125 7.15625 3.70703125 7.15625 1.8125 9.5 C-5.75066759 19.89179226 -7.68738785 31.40902959 -6 44 C-4.11265304 51.52529406 -0.87962171 57.88320827 3.86328125 64 C5.26960007 66.47434789 5.20910735 68.19893407 5 71 C2.525 71.495 2.525 71.495 0 72 C-9.69660434 60.07084415 -14.80436232 47.17672883 -14.41015625 31.6484375 C-13.11710425 20.14643208 -8.26387867 8.26387867 0 0 Z " fill="#40BDDF" transform="translate(348,417)"/>
<path d="M0 0 C8.96321487 0.7210507 14.37119973 5.76639968 20.0859375 12.43359375 C27.48790901 22.53453741 32.38610346 33.83658776 32.25 46.4375 C32.26160156 47.50581055 32.26160156 47.50581055 32.2734375 48.59570312 C32.22920465 60.77079535 32.22920465 60.77079535 29 64 C27.33382885 64.04063832 25.66611905 64.042721 24 64 C23.13771321 59.88018535 23.17440997 57.07487649 24 53 C24.94790601 40.69276136 23.14579805 29.22120668 15.76953125 19.0625 C10.95991885 13.45659416 5.27534366 8.86174994 -1 5 C-0.67 3.35 -0.34 1.7 0 0 Z " fill="#3FD7ED" transform="translate(658,365)"/>
<path d="M0 0 C11.22 0 22.44 0 34 0 C34 2.64 34 5.28 34 8 C26.08 8 18.16 8 10 8 C10 11.3 10 14.6 10 18 C17.26 18 24.52 18 32 18 C32 20.97 32 23.94 32 27 C24.74 27 17.48 27 10 27 C10 30.3 10 33.6 10 37 C18.25 37 26.5 37 35 37 C35 37.33 35 37.66 35 38 C26.42 38 17.84 38 9 38 C9 34.04 9 30.08 9 26 C16.26 26 23.52 26 31 26 C31 23.69 31 21.38 31 19 C23.74 19 16.48 19 9 19 C8.67 16.36 8.34 13.72 8 11 C7.01 13.31 6.02 15.62 5 18 C4.01 17.67 3.02 17.34 2 17 C1.67 26.24 1.34 35.48 1 45 C12.22 45 23.44 45 35 45 C35 45.33 35 45.66 35 46 C23.45 46 11.9 46 0 46 C0 30.82 0 15.64 0 0 Z " fill="#475077" transform="translate(315,678)"/>
<path d="M0 0 C3.3 0 6.6 0 10 0 C10 15.18 10 30.36 10 46 C6.7 46 3.4 46 0 46 C0 30.82 0 15.64 0 0 Z " fill="#333E67" transform="translate(250,678)"/>
<path d="M0 0 C6.39657573 1.97852042 12.04611269 4.95690204 18 8 C18 13.61 18 19.22 18 25 C8.14472467 22.65350587 -0.20301908 17.86793492 -9 13 C-8.18891838 9.09238901 -6.66271664 7.19150367 -3.9375 4.25 C-3.20402344 3.45078125 -2.47054688 2.6515625 -1.71484375 1.828125 C-1.14894531 1.22484375 -0.58304687 0.6215625 0 0 Z " fill="#1C254C" transform="translate(447,577)"/>
<path d="M0 0 C0.94101562 0.00644531 1.88203125 0.01289063 2.8515625 0.01953125 C5.375 0.1875 5.375 0.1875 8.375 1.1875 C6.80272544 5.04671938 4.29759443 7.26490557 1.375 10.1875 C0.93929688 10.93 0.50359375 11.6725 0.0546875 12.4375 C-2.64950002 16.85481156 -4.33972948 18.85904198 -9.4921875 20.17578125 C-12.31666273 20.57154913 -15.13428654 20.79824453 -17.98046875 20.96875 C-20.74315238 21.13457024 -23.00800812 21.37602965 -25.625 22.1875 C-24.5042445 14.85750137 -20.37555749 9.24190806 -14.5625 4.75 C-9.8725628 1.38360336 -5.7964707 -0.08782531 0 0 Z " fill="#1A3569" transform="translate(470.625,378.8125)"/>
<path d="M0 0 C1.2065625 0.0309375 1.2065625 0.0309375 2.4375 0.0625 C2.72882813 1.04089844 3.02015625 2.01929688 3.3203125 3.02734375 C7.11406388 15.33739121 11.80382354 25.35026755 23.55078125 31.76171875 C26.49257372 33.24471402 29.44815261 34.67827017 32.4375 36.0625 C32.4375 37.7125 32.4375 39.3625 32.4375 41.0625 C24.86685317 42.26692109 19.47456434 38.28281795 13.4375 34.0625 C4.95465164 27.19408355 -1.15425953 17.75672038 -3.5625 7.0625 C-3.8125 3.5625 -3.8125 3.5625 -3.5625 1.0625 C-2.5625 0.0625 -2.5625 0.0625 0 0 Z " fill="#45D1E7" transform="translate(411.5625,503.9375)"/>
<path d="M0 0 C1.32 0 2.64 0 4 0 C5.29636515 2.87290373 6.58623099 5.74868162 7.875 8.625 C8.23980469 9.43324219 8.60460937 10.24148438 8.98046875 11.07421875 C14 22.29971591 14 22.29971591 14 28 C8.39 27.67 2.78 27.34 -3 27 C-6.64721485 18.39257294 -6.64721485 18.39257294 -5 14 C-3.99656702 11.98893557 -2.96458461 9.99487714 -1.921875 8.00390625 C-0.71839762 5.3878728 -0.2852445 2.85244504 0 0 Z " fill="#2E93CC" transform="translate(638,403)"/>
<path d="M0 0 C1.32 0.33 2.64 0.66 4 1 C4.6484375 2.77734375 4.6484375 2.77734375 5 5 C4.0390625 6.81640625 4.0390625 6.81640625 2.625 8.5625 C-2.02400383 14.39323385 -1.63819374 20.79266535 -1 28 C0.33975218 32.10815005 2.6091689 35.41375335 5 39 C4.625 41.1875 4.625 41.1875 4 43 C2.02 43.495 2.02 43.495 0 44 C-7.48081232 36.11481944 -8.58154002 28.34533031 -8.35546875 17.6015625 C-7.65259677 10.48015628 -4.77173102 5.28298792 0 0 Z " fill="#47C4E0" transform="translate(358,430)"/>
<path d="M0 0 C4.88553804 0.28738459 8.50950095 2.74783899 12 6 C17.86559605 13.27173209 20.35199765 19.79381842 20.1875 29.1875 C20.18685547 29.89841797 20.18621094 30.60933594 20.18554688 31.34179688 C20.15892875 34.48569308 20.00063537 36.99809388 19 40 C17.33388095 40.042721 15.66617115 40.04063832 14 40 C13.67 39.67 13.34 39.34 13 39 C13.03274661 36.66605948 13.10187879 34.33259934 13.1875 32 C13.33394036 22.4656062 10.751816 16.52450589 4.5625 9.41015625 C2.83189635 7.84828645 1.12106706 6.9462519 -1 6 C-1.042721 4.33388095 -1.04063832 2.66617115 -1 1 C-0.67 0.67 -0.34 0.34 0 0 Z " fill="#3DD7E8" transform="translate(654,381)"/>
<path d="M0 0 C12.41836527 -0.40939666 12.41836527 -0.40939666 17 3 C18.42041821 5.84083641 18.31452272 7.85477278 18 11 C15.76793569 13.84780619 14.45007001 14.84997666 11 16 C7.32893957 16.13281695 3.67480286 16.04323297 0 16 C0 10.72 0 5.44 0 0 Z " fill="#F1F1F3" transform="translate(280,686)"/>
<path d="M0 0 C2.206875 -0.061875 4.41375 -0.12375 6.6875 -0.1875 C8.54955078 -0.23970703 8.54955078 -0.23970703 10.44921875 -0.29296875 C14.22968455 0.01895087 16.04582233 0.66832927 19 3 C20.125 5.875 20.125 5.875 20 9 C17.98046875 11.67578125 17.98046875 11.67578125 15 14 C12.1612599 14.36771245 9.98179849 14.48630804 7.1875 14.3125 C6.49462891 14.28994141 5.80175781 14.26738281 5.08789062 14.24414062 C3.39098427 14.18562661 1.69520139 14.0959548 0 14 C0 9.38 0 4.76 0 0 Z " fill="#F4F5F7" transform="translate(644,686)"/>
<path d="M0 0 C1.65 0 3.3 0 5 0 C5.27972656 0.79664063 5.55945313 1.59328125 5.84765625 2.4140625 C9.14391956 11.12637259 12.32577464 15.45042253 20.4375 19.875 C21.283125 20.24625 22.12875 20.6175 23 21 C23 22.65 23 24.3 23 26 C20.1434039 26.83693254 18.5775822 27.24389072 15.7890625 26.06640625 C7.75090989 20.48032547 1.53926836 14.68096062 -1 5 C-0.6875 2 -0.6875 2 0 0 Z " fill="#4EB8E3" transform="translate(424,504)"/>
<path d="M0 0 C2.02376565 3.03564847 3.0346128 5.69760811 4.25 9.125 C6.19976372 14.3515308 8.4510709 18.599366 11.86328125 23 C13.26960007 25.47434789 13.20910735 27.19893407 13 30 C11.35 30.33 9.7 30.66 8 31 C1.99230591 23.60909112 -3.52751484 15.68166541 -4.21875 5.91796875 C-4 4 -4 4 -2.0625 1.4375 C-1.381875 0.963125 -0.70125 0.48875 0 0 Z " fill="#3C92D6" transform="translate(340,458)"/>
<path d="M0 0 C0.33 0.66 0.66 1.32 1 2 C1.66 2 2.32 2 3 2 C4.59547497 5.19094994 4.18452285 8.62387263 4.1875 12.125 C4.19974609 12.85976563 4.21199219 13.59453125 4.22460938 14.3515625 C4.23834361 19.55226032 3.49411774 24.01220174 2 29 C1 30 1 30 -1.5625 30.0625 C-2.366875 30.041875 -3.17125 30.02125 -4 30 C-5.12737891 24.61363408 -5.12737891 24.61363408 -4.55078125 21.8359375 C-4.08368539 19.43089072 -3.88006792 17.29856448 -3.7890625 14.86328125 C-3.76070312 14.12142578 -3.73234375 13.37957031 -3.703125 12.61523438 C-3.65065279 11.06861586 -3.60650163 9.52169454 -3.5703125 7.97460938 C-3.4865186 5.9757758 -3.25299107 3.9845283 -3 2 C-2.01 1.34 -1.02 0.68 0 0 Z " fill="#47A0D7" transform="translate(686,399)"/>
<path d="M0 0 C0.99 0.33 1.98 0.66 3 1 C0.41538714 15.38541103 -5.8301666 23.85856977 -17.625 32.625 C-22.04823081 35.58087513 -26.69903738 38.0337782 -31.4375 40.4375 C-32.13633301 40.79215332 -32.83516602 41.14680664 -33.55517578 41.51220703 C-36.54298191 42.97953078 -38.62807352 44 -42 44 C-42 43.34 -42 42.68 -42 42 C-41.48203857 41.74420166 -40.96407715 41.48840332 -40.43041992 41.22485352 C-30.05683326 36.05705521 -20.44481078 31.05960889 -12 23 C-10.99066406 22.1028125 -10.99066406 22.1028125 -9.9609375 21.1875 C-4.03503094 15.33724331 -2.20586255 7.80692369 0 0 Z " fill="#233660" transform="translate(551,475)"/>
<path d="M0 0 C3.24516258 0.60042656 5.0940176 1.66059325 7.625 3.75 C12.08378125 7.23289705 16.88232358 9.62992854 22 12 C22 13.65 22 15.3 22 17 C14.47424695 18.19727889 8.98254554 14.24540413 3 10 C0.98968389 8.07727028 -0.42472818 6.30664803 -2 4 C-1.34 2.68 -0.68 1.36 0 0 Z " fill="#3880CF" transform="translate(422,528)"/>
<path d="M0 0 C3.01327566 1.50663783 3.61056618 4.03166411 5 7 C5.63808594 6.91621094 6.27617187 6.83242188 6.93359375 6.74609375 C7.75988281 6.64425781 8.58617187 6.54242187 9.4375 6.4375 C10.26121094 6.33308594 11.08492188 6.22867188 11.93359375 6.12109375 C12.61550781 6.08113281 13.29742187 6.04117188 14 6 C14.33 6.33 14.66 6.66 15 7 C16.67884238 7.3931648 18.36850045 7.74085452 20.0625 8.0625 C20.98160156 8.23910156 21.90070312 8.41570313 22.84765625 8.59765625 C23.55792969 8.73042969 24.26820313 8.86320313 25 9 C25 9.99 25 10.98 25 12 C19.75990063 15.30953645 15.0365897 15.89321896 9 15 C5.13738944 13.03358008 2.00672477 10.90196483 0 7 C-0.1875 3.25 -0.1875 3.25 0 0 Z " fill="#3988CD" transform="translate(497,593)"/>
<path d="M0 0 C0.66 0 1.32 0 2 0 C2.04487549 0.589021 2.08975098 1.17804199 2.13598633 1.78491211 C2.34981994 4.50350163 2.58105974 7.22035495 2.8125 9.9375 C2.88275391 10.86369141 2.95300781 11.78988281 3.02539062 12.74414062 C3.79021664 21.46315723 5.65927206 28.66543809 10.6875 35.9375 C11.38230469 36.94425781 12.07710937 37.95101562 12.79296875 38.98828125 C15.57505016 42.78471446 18.50131377 46.43809982 21.53125 50.0390625 C23 52 23 52 23 54 C13.20859892 49.7758336 6.21974356 37.31711692 2.1105957 27.97875977 C-0.17972437 21.920907 -0.36179868 16.35973612 -0.1875 9.9375 C-0.17396484 8.97650391 -0.16042969 8.01550781 -0.14648438 7.02539062 C-0.11152306 4.68298248 -0.06246104 2.34180844 0 0 Z " fill="#1F3568" transform="translate(569,497)"/>
<path d="M0 0 C0.99 1.32 1.98 2.64 3 4 C-0.07830665 7.20656943 -3.36780401 10.10923948 -6.73828125 13 C-8.31590733 14.39506831 -9.85267744 15.83712279 -11.35546875 17.3125 C-16.53374336 22.31789103 -20.72058929 24.91600232 -27.578125 27.046875 C-32.31677695 28.91176383 -34.23493172 32.32413614 -36.3125 36.875 C-36.6528125 37.926875 -36.6528125 37.926875 -37 39 C-37.66 39 -38.32 39 -39 39 C-39.5744234 35.71758059 -39.46038244 33.68486643 -37.58203125 30.890625 C-32.17059873 24.56767186 -32.17059873 24.56767186 -28 23 C-26.88882813 22.92394531 -25.77765625 22.84789062 -24.6328125 22.76953125 C-19.73741242 21.73254865 -17.97557318 19.43504317 -14.875 15.6875 C-13.87582288 14.52179336 -12.87326952 13.35897126 -11.8671875 12.19921875 C-11.38822021 11.64572754 -10.90925293 11.09223633 -10.41577148 10.52197266 C-8.46902474 8.42919473 -6.26042151 6.74087352 -4 5 C-2.62631655 3.36643049 -1.28062485 1.7074998 0 0 Z " fill="#E9EAEE" transform="translate(580,420)"/>
<path d="M0 0 C2.49161935 3.03891146 3.87678954 6.00830086 5.375 9.625 C11.66882454 22.32063137 25.99040197 28.61749219 38 35 C37.505 35.99 37.505 35.99 37 37 C28.05289672 34.58186398 20.35652949 29.49406831 13.0625 23.9375 C12.51907959 23.52628906 11.97565918 23.11507813 11.41577148 22.69140625 C5.91311132 18.38728595 2.81054907 14.15999905 0.25 7.6875 C-0.17796875 6.61886719 -0.6059375 5.55023438 -1.046875 4.44921875 C-1.36140625 3.64097656 -1.6759375 2.83273437 -2 2 C-1.34 2 -0.68 2 0 2 C0 1.34 0 0.68 0 0 Z " fill="#334370" transform="translate(581,484)"/>
<path d="M0 0 C2.5 1.5625 2.5 1.5625 4 4 C3.9375 7.625 3.9375 7.625 3 11 C-0.69486103 13.46324069 -2.63293092 13.38991688 -7 13 C-8.9375 11.9375 -8.9375 11.9375 -10 10 C-10.36528977 6.5906288 -10.6140629 4.11976176 -8.9375 1.0625 C-5.8347167 -0.63902633 -3.46230815 -0.42519574 0 0 Z " fill="#F7F7F8" transform="translate(438,432)"/>
<path d="M0 0 C2.125 0.375 2.125 0.375 4 1 C4.69921875 2.71875 4.69921875 2.71875 5 5 C3.70703125 7.15625 3.70703125 7.15625 1.8125 9.5 C-2.25760996 14.95394734 -4.19859017 20.48807132 -6 27 C-8.48893062 22.42828225 -9.56592373 18.21665594 -9 13 C-6.70906886 8.14898461 -3.79753408 3.79753408 0 0 Z " fill="#36D6EB" transform="translate(348,417)"/>
<path d="M0 0 C2.1875 -0.375 2.1875 -0.375 5 0 C9.03035389 4.12195285 11.13357591 7.29262231 11.1875 13.0625 C11 17 11 17 9 19 C5.46428571 18.46428571 5.46428571 18.46428571 4 17 C3.896875 15.741875 3.79375 14.48375 3.6875 13.1875 C3.25995105 9.11491505 1.93407223 7.83626982 -1 5 C-0.75 2.25 -0.75 2.25 0 0 Z " fill="#35DBE9" transform="translate(648,396)"/>
<path d="M0 0 C1.9375 0.3125 1.9375 0.3125 4 1 C5.23482184 4.70446553 5.14558202 8.1443008 5.125 12 C5.12886719 12.72445313 5.13273438 13.44890625 5.13671875 14.1953125 C5.13081927 17.39282879 5.01805798 19.94582607 4 23 C2.33388095 23.042721 0.66617115 23.04063832 -1 23 C-3.07864192 20.92135808 -2.18513792 16.60812111 -2.1875 13.75 C-2.19974609 12.98558594 -2.21199219 12.22117187 -2.22460938 11.43359375 C-2.23567367 7.16277608 -1.9715764 3.89639605 0 0 Z " fill="#4DC5E4" transform="translate(669,398)"/>
<path d="M0 0 C0.495 0.99 0.495 0.99 1 2 C-0.28368665 4.38916738 -1.61683903 6.64893564 -3.0625 8.9375 C-3.89761032 10.29057153 -4.73093133 11.64474897 -5.5625 13 C-5.97628906 13.67289062 -6.39007812 14.34578125 -6.81640625 15.0390625 C-9.37020433 19.2701075 -11.68577396 23.63473442 -14 28 C-14.33 26.68 -14.66 25.36 -15 24 C-17.10736742 26.24702036 -19.21031189 28.49813431 -21.3125 30.75 C-22.20485352 31.70132812 -22.20485352 31.70132812 -23.11523438 32.671875 C-25.91427906 35.67420226 -28.64170632 38.62857654 -31 42 C-31.66 41.67 -32.32 41.34 -33 41 C-32.35675781 40.2471875 -31.71351563 39.494375 -31.05078125 38.71875 C-20.31302142 26.11346609 -9.79149708 13.35894175 0 0 Z " fill="#55DCED" transform="translate(586,319)"/>
<path d="M0 0 C4.60291437 2.42931592 7.65601848 5.31203695 10 10 C10.13415472 12.6723621 10.04318541 15.32250488 10 18 C9.67 18 9.34 18 9 18 C8.67 15.36 8.34 12.72 8 10 C7.113125 10.70125 6.22625 11.4025 5.3125 12.125 C2 14 2 14 -0.8125 13.3125 C-3 12 -3 12 -4 11 C-4.25 8.625 -4.25 8.625 -4 6 C-2.5625 4.375 -2.5625 4.375 -1 3 C-0.67 2.01 -0.34 1.02 0 0 Z " fill="#37D7EA" transform="translate(518,578)"/>
<path d="M0 0 C1.2065625 0.0309375 1.2065625 0.0309375 2.4375 0.0625 C2.76363281 0.88234375 3.08976562 1.7021875 3.42578125 2.546875 C3.86277344 3.62453125 4.29976563 4.7021875 4.75 5.8125 C5.17925781 6.87984375 5.60851562 7.9471875 6.05078125 9.046875 C7.28358612 11.7277915 8.56557487 13.8008192 10.4375 16.0625 C9.4475 16.0625 8.4575 16.0625 7.4375 16.0625 C7.1075 15.0725 6.7775 14.0825 6.4375 13.0625 C3.9625 14.5475 3.9625 14.5475 1.4375 16.0625 C-1.3621192 11.04922841 -3.20922484 6.83266096 -3.5625 1.0625 C-2.5625 0.0625 -2.5625 0.0625 0 0 Z " fill="#49CEE9" transform="translate(426.5625,503.9375)"/>
<path d="M0 0 C3.04662882 2.56417147 4.20951098 5.40969231 5.6875 9.0625 C6.34298828 10.65771484 6.34298828 10.65771484 7.01171875 12.28515625 C8 15 8 15 8 17 C6 17 4 17 2 17 C1.67 17.99 1.34 18.98 1 20 C0.72285156 19.09636719 0.44570313 18.19273437 0.16015625 17.26171875 C-0.20207031 16.08222656 -0.56429687 14.90273438 -0.9375 13.6875 C-1.29714844 12.51574219 -1.65679688 11.34398437 -2.02734375 10.13671875 C-2.66372279 8.08446023 -3.32053379 6.03839863 -4 4 C-2.68 2.68 -1.36 1.36 0 0 Z " fill="#4DCAE5" transform="translate(681,384)"/>
<path d="M0 0 C2.1875 0.3125 2.1875 0.3125 4 1 C4.671875 2.73828125 4.671875 2.73828125 5 5 C3.890625 7.10546875 3.890625 7.10546875 2.25 9.1875 C1.71890625 9.88230469 1.1878125 10.57710938 0.640625 11.29296875 C-1 13 -1 13 -4 14 C-5.20882096 16.00016466 -5.20882096 16.00016466 -6 18 C-6.66 18 -7.32 18 -8 18 C-7.47135562 11.6562674 -5.69591703 6.16048759 -1.50390625 1.24609375 C-1.00761719 0.83488281 -0.51132812 0.42367188 0 0 Z " fill="#3DD4E7" transform="translate(358,430)"/>
<path d="M0 0 C1.9375 0.0625 1.9375 0.0625 4 1 C5.625 3.5 5.625 3.5 7 6 C7.66 6.33 8.32 6.66 9 7 C9 8.65 9 10.3 9 12 C6.8125 12.8125 6.8125 12.8125 4 13 C0.68407443 10.51305582 -0.76334695 8.80462038 -1.9375 4.8125 C-1.958125 3.884375 -1.97875 2.95625 -2 2 C-1.34 1.34 -0.68 0.68 0 0 Z " fill="#4CD1EA" transform="translate(440,503)"/>
<path d="M0 0 C0.33 0 0.66 0 1 0 C1 9 1 9 -0.25 10.67578125 C-1.11625 11.48595703 -1.11625 11.48595703 -2 12.3125 C-2.95326172 13.2096875 -2.95326172 13.2096875 -3.92578125 14.125 C-4.61027344 14.74375 -5.29476562 15.3625 -6 16 C-6.69480469 16.639375 -7.38960937 17.27875 -8.10546875 17.9375 C-11.27766176 20.79425919 -14.08827981 23.22194537 -18 25 C-15.9308421 21.2886533 -13.62060618 18.37731734 -10.6875 15.3125 C-6.81033577 11.10644093 -3.86045197 6.83137161 -1.09375 1.8359375 C-0.7328125 1.23007812 -0.371875 0.62421875 0 0 Z " fill="#263664" transform="translate(533,473)"/>
<path d="M0 0 C0.66 0 1.32 0 2 0 C2.45375 0.928125 2.9075 1.85625 3.375 2.8125 C4.9421633 6.03921389 4.9421633 6.03921389 7 9 C6.625 11.1875 6.625 11.1875 6 13 C4.68 13.33 3.36 13.66 2 14 C-1.56679446 10.34621056 -1.56679446 10.34621056 -3 8 C-2.92718506 4.2136229 -2.68929923 2.68929923 0 0 Z " fill="#3E9ED8" transform="translate(356,460)"/>
<path d="M0 0 C2.0625 0.4375 2.0625 0.4375 4 1 C3.67 1.66 3.34 2.32 3 3 C2.34 2.67 1.68 2.34 1 2 C1.66 5.3 2.32 8.6 3 12 C1.35 12.33 -0.3 12.66 -2 13 C-1.67 16.96 -1.34 20.92 -1 25 C-0.67 21.37 -0.34 17.74 0 14 C2.36574234 17.5486135 2.10865265 18.5764525 1.625 22.6875 C1.51414062 23.68136719 1.40328125 24.67523438 1.2890625 25.69921875 C1.19367187 26.45847656 1.09828125 27.21773438 1 28 C0.34 28 -0.32 28 -1 28 C-1 29.65 -1 31.3 -1 33 C-1.33 33 -1.66 33 -2 33 C-3.15664737 27.51730931 -3.11416255 22.19660726 -3.0625 16.625 C-3.05798828 15.69816406 -3.05347656 14.77132813 -3.04882812 13.81640625 C-3.03711574 11.54420291 -3.02071372 9.27213612 -3 7 C-2.34 6.67 -1.68 6.34 -1 6 C-1.0309375 4.7934375 -1.0309375 4.7934375 -1.0625 3.5625 C-1 1 -1 1 0 0 Z " fill="#324372" transform="translate(570,469)"/>
<path d="M0 0 C0.33 0.99 0.66 1.98 1 3 C0.05988318 4.70116376 -0.94895617 6.36504293 -2 8 C-2.67441131 9.6635479 -3.3400321 11.33066942 -4 13 C-4.6183523 14.21174868 -5.24413074 15.4197206 -5.875 16.625 C-9.05020123 22.89215748 -12.19766393 29.97057799 -13 37 C-12.34 37.66 -11.68 38.32 -11 39 C-12.65 39.99 -14.3 40.98 -16 42 C-14.80515067 27.30335326 -8.36464023 12.04001245 0 0 Z " fill="#3C9ACA" transform="translate(387,395)"/>
<path d="M0 0 C0 3.65414064 -0.81226987 4.39325819 -3.0625 7.1875 C-3.69800781 7.98027344 -4.33351563 8.77304687 -4.98828125 9.58984375 C-7.40080963 12.48019328 -9.88115651 15.29995618 -12.421875 18.078125 C-14.08598381 20.00375225 -14.08598381 20.00375225 -15.421875 22.4140625 C-17.18625791 25.3052048 -19.2117095 27.63076335 -21.5 30.125 C-22.2734375 30.97320312 -23.046875 31.82140625 -23.84375 32.6953125 C-25.53212739 34.49991876 -27.23603021 36.26995271 -29 38 C-29.495 36.515 -29.495 36.515 -30 35 C-29.278125 34.46890625 -28.55625 33.9378125 -27.8125 33.390625 C-24.75422344 30.79108992 -22.40434371 27.93200845 -20 24.75 C-19.0455745 23.51071365 -18.0897844 22.27247734 -17.1328125 21.03515625 C-16.63040039 20.38434082 -16.12798828 19.73352539 -15.61035156 19.06298828 C-12.74886829 15.39720089 -9.8116257 11.79316848 -6.875 8.1875 C-6.30652344 7.48786133 -5.73804688 6.78822266 -5.15234375 6.06738281 C-1.13892845 1.13892845 -1.13892845 1.13892845 0 0 Z " fill="#3BDCEF" transform="translate(551,363)"/>
<path d="M0 0 C3.43950364 0.61198376 5.51564485 1.92058847 8.25 4.0625 C8.95640625 4.61035156 9.6628125 5.15820312 10.390625 5.72265625 C11.18726563 6.35494141 11.18726563 6.35494141 12 7 C11.67 7.66 11.34 8.32 11 9 C10.01 9.33 9.02 9.66 8 10 C7.34 10.66 6.68 11.32 6 12 C3.36 9.69 0.72 7.38 -2 5 C-1.34 3.35 -0.68 1.7 0 0 Z " fill="#4B9FDA" transform="translate(422,528)"/>
<path d="M0 0 C0.66 0.33 1.32 0.66 2 1 C-7 10 -16 19 -25 28 C-21.99626283 19.22103622 -13.97685481 12.90131536 -7.5625 6.4375 C-7.04252441 5.912771 -6.52254883 5.38804199 -5.98681641 4.84741211 C-2.24554739 1.1227737 -2.24554739 1.1227737 0 0 Z " fill="#32AFD7" transform="translate(420,357)"/>
<path d="M0 0 C1.90318884 2.85478326 2.4619099 4.41941308 3.125 7.6875 C3.29257812 8.49574219 3.46015625 9.30398438 3.6328125 10.13671875 C3.75398438 10.75160156 3.87515625 11.36648438 4 12 C3.01 12 2.02 12 1 12 C-0.70532323 13.94009522 -0.70532323 13.94009522 -2 16 C-3.57793673 11.85791608 -4.57888176 8.43809352 -4 4 C-2 1.625 -2 1.625 0 0 Z " fill="#4DA4D6" transform="translate(340,458)"/>
<path d="M0 0 C0.66 0 1.32 0 2 0 C2 1.65 2 3.3 2 5 C1.34 5 0.68 5 0 5 C-0.33 6.98 -0.66 8.96 -1 11 C0.32 11.66 1.64 12.32 3 13 C2.67 14.65 2.34 16.3 2 18 C-1.875 17.125 -1.875 17.125 -3 16 C-3.04080783 14.00041636 -3.04254356 11.99954746 -3 10 C-3.99 9.67 -4.98 9.34 -6 9 C-5.38125 8.62875 -4.7625 8.2575 -4.125 7.875 C-1.4489404 5.51377094 -0.9063156 3.39868348 0 0 Z " fill="#2B3F6E" transform="translate(539,454)"/>
<path d="M0 0 C0.66 0 1.32 0 2 0 C3.12513633 8.01659634 3.09579384 15.92138585 3 24 C2.34 24.33 1.68 24.66 1 25 C0.10250178 21.9317362 -0.11711768 19.20730024 -0.09765625 16.015625 C-0.09443359 15.08105469 -0.09121094 14.14648438 -0.08789062 13.18359375 C-0.07951172 12.21550781 -0.07113281 11.24742187 -0.0625 10.25 C-0.05798828 9.26644531 -0.05347656 8.28289062 -0.04882812 7.26953125 C-0.03706483 4.84629209 -0.02062684 2.42317727 0 0 Z " fill="#1F2C56" transform="translate(569,497)"/>
<path d="M0 0 C0 0.66 0 1.32 0 2 C-0.9075 2.391875 -1.815 2.78375 -2.75 3.1875 C-7.83320445 6.02236402 -10.13584027 9.56286744 -12 15 C-12.66 15 -13.32 15 -14 15 C-14.5744234 11.71758059 -14.46038244 9.68486643 -12.58203125 6.890625 C-5.20101751 -1.7336725 -5.20101751 -1.7336725 0 0 Z " fill="#EDF1F4" transform="translate(555,444)"/>
<path d="M0 0 C0.99 0 1.98 0 3 0 C2.67 2.31 2.34 4.62 2 7 C1.67 5.68 1.34 4.36 1 3 C-1.10736742 5.24702036 -3.21031189 7.49813431 -5.3125 9.75 C-5.90740234 10.38421875 -6.50230469 11.0184375 -7.11523438 11.671875 C-9.91427906 14.67420226 -12.64170632 17.62857654 -15 21 C-15.66 20.67 -16.32 20.34 -17 20 C-15.91332031 18.71416016 -15.91332031 18.71416016 -14.8046875 17.40234375 C-14.33869141 16.8508667 -13.87269531 16.29938965 -13.39257812 15.73120117 C-12.37945142 14.53373626 -11.36512417 13.33728606 -10.34960938 12.1418457 C-8.22307781 9.63768329 -6.10649167 7.13152358 -4.0390625 4.578125 C-2.75429556 2.99988338 -1.38608798 1.49004457 0 0 Z " fill="#3DDCED" transform="translate(570,340)"/>
<path d="M0 0 C0.99 0.495 0.99 0.495 2 1 C2.33 1.99 2.66 2.98 3 4 C3.99 3.67 4.98 3.34 6 3 C6.33 2.34 6.66 1.68 7 1 C7.1953125 7.0546875 7.1953125 7.0546875 7 9 C6.34 9.66 5.68 10.32 5 11 C1.46428571 10.46428571 1.46428571 10.46428571 0 9 C-0.07179964 7.48071962 -0.08392007 5.95832518 -0.0625 4.4375 C-0.05347656 3.61121094 -0.04445313 2.78492188 -0.03515625 1.93359375 C-0.02355469 1.29550781 -0.01195312 0.65742188 0 0 Z " fill="#42D9E9" transform="translate(652,404)"/>
<path d="M0 0 C1.32 2.31 2.64 4.62 4 7 C3.34 7 2.68 7 2 7 C1.67 8.32 1.34 9.64 1 11 C-1.81986541 9.96604935 -2.85795028 9.23469084 -4.4375 6.625 C-5 4 -5 4 -3.75 1.6875 C-2 0 -2 0 0 0 Z " fill="#39B4E0" transform="translate(420,521)"/>
<path d="M0 0 C3 1 3 1 4.23828125 3.109375 C4.59277344 3.98078125 4.94726562 4.8521875 5.3125 5.75 C5.86357422 7.04164063 5.86357422 7.04164063 6.42578125 8.359375 C7.12779538 11.58768487 6.47476074 13.10259021 5 16 C0.96695587 11.4169953 -0.36552401 6.03114611 0 0 Z " fill="#EEF1F6" transform="translate(571,471)"/>
<path d="M0 0 C0.33 0 0.66 0 1 0 C0.85831863 1.43791516 0.71148957 2.8753237 0.5625 4.3125 C0.48128906 5.11300781 0.40007812 5.91351563 0.31640625 6.73828125 C0 9 0 9 -1 12 C-1.03013238 15.62019052 -0.93321241 19.22868701 -0.83984375 22.84765625 C-1 26 -1 26 -3 28 C-4.85843489 26.14156511 -4.26033193 23.24308444 -4.3125 20.75 C-4.28948492 13.27777125 -2.59073503 6.9626004 0 0 Z " fill="#50CAE0" transform="translate(338,432)"/>
<path d="M0 0 C0.66 1.32 1.32 2.64 2 4 C-1.63 8.62 -5.26 13.24 -9 18 C-9 14.81579155 -8.63765561 14.03619037 -7.03125 11.42578125 C-6.42216797 10.42514648 -6.42216797 10.42514648 -5.80078125 9.40429688 C-5.15689453 8.36885742 -5.15689453 8.36885742 -4.5 7.3125 C-4.07074219 6.61060547 -3.64148438 5.90871094 -3.19921875 5.18554688 C-2.13872072 3.45340009 -1.07012602 1.72621518 0 0 Z " fill="#4586D0" transform="translate(445,562)"/>
<path d="M0 0 C0 3 0 3 -2.3359375 5.69921875 C-3.34119508 6.70314662 -4.35458968 7.6989775 -5.375 8.6875 C-5.88289062 9.19861328 -6.39078125 9.70972656 -6.9140625 10.23632812 C-10.73300859 14 -10.73300859 14 -13 14 C-12.75722624 10.64815577 -11.78030433 9.79196679 -9.27734375 7.421875 C-8.17185454 6.52159636 -7.05823943 5.6312214 -5.9375 4.75 C-5.36966797 4.29109375 -4.80183594 3.8321875 -4.21679688 3.359375 C-2.8180802 2.23099852 -1.40992986 1.1143337 0 0 Z " fill="#1C315F" transform="translate(539,525)"/>
<path d="M0 0 C3.66060821 0.58536753 5.54535164 2.083239 8.25 4.5625 C8.95640625 5.20316406 9.6628125 5.84382812 10.390625 6.50390625 C10.92171875 6.99761719 11.4528125 7.49132812 12 8 C11.67 8.99 11.34 9.98 11 11 C9.34772462 9.73755365 7.70336049 8.46474765 6.0625 7.1875 C5.14597656 6.47980469 4.22945312 5.77210938 3.28515625 5.04296875 C1 3 1 3 0 0 Z " fill="#1D3261" transform="translate(588,516)"/>
<path d="M0 0 C0.33 0 0.66 0 1 0 C1.33 4.62 1.66 9.24 2 14 C2.33 10.37 2.66 6.74 3 3 C5.36574234 6.5486135 5.10865265 7.5764525 4.625 11.6875 C4.51414062 12.68136719 4.40328125 13.67523438 4.2890625 14.69921875 C4.19367187 15.45847656 4.09828125 16.21773438 4 17 C3.34 17 2.68 17 2 17 C2 18.65 2 20.3 2 22 C1.67 22 1.34 22 1 22 C0.02700844 17.14270355 -0.12038805 12.5499375 -0.0625 7.625 C-0.05798828 6.88894531 -0.05347656 6.15289062 -0.04882812 5.39453125 C-0.03715142 3.59631842 -0.01922011 1.79814803 0 0 Z " fill="#6F7894" transform="translate(567,480)"/>
<path d="M0 0 C0.75 2.125 0.75 2.125 1 5 C-0.9375 8.3125 -0.9375 8.3125 -3 11 C-5.4294516 7.3558226 -5.16179575 5.28758728 -5 1 C-3 0 -3 0 0 0 Z " fill="#4AAFDC" transform="translate(356,455)"/>
<path d="M0 0 C0.99 0.33 1.98 0.66 3 1 C1.87469572 4.37591285 0.83946383 5.28446799 -1.8125 7.5625 C-2.49957031 8.16191406 -3.18664062 8.76132812 -3.89453125 9.37890625 C-5.86555845 10.89648749 -7.73964261 11.97902958 -10 13 C-7.37288552 8.05484333 -3.73354706 4.12224511 0 0 Z " fill="#34436F" transform="translate(525,485)"/>
<path d="M0 0 C0.33 1.65 0.66 3.3 1 5 C0.01 5.495 0.01 5.495 -1 6 C-1.33 5.34 -1.66 4.68 -2 4 C-2.33 7.3 -2.66 10.6 -3 14 C-3.66 13.67 -4.32 13.34 -5 13 C-5 9.04 -5 5.08 -5 1 C-3 0 -3 0 0 0 Z " fill="#192756" transform="translate(573,481)"/>
<path d="M0 0 C1.67542976 0.28604898 3.34385343 0.61781233 5 1 C5 2.65 5 4.3 5 6 C3.34385343 6.38218767 1.67542976 6.71395102 0 7 C-1 6 -1 6 -1.125 3.5 C-1 1 -1 1 0 0 Z " fill="#E7F9FB" transform="translate(517,583)"/>
<path d="M0 0 C3.44094186 1.31246538 6.13540882 2.66588867 9 5 C8.236875 4.835 7.47375 4.67 6.6875 4.5 C3.96403764 3.90854604 3.96403764 3.90854604 1 4 C-0.4018945 5.66550346 -0.4018945 5.66550346 -1.5625 7.8125 C-1.97628906 8.52019531 -2.39007812 9.22789062 -2.81640625 9.95703125 C-3.20699219 10.63121094 -3.59757813 11.30539062 -4 12 C-4.66 12.99 -5.32 13.98 -6 15 C-6 10.57998499 -5.15107686 9.0143845 -3 5.25 C-2.443125 4.26515625 -1.88625 3.2803125 -1.3125 2.265625 C-0.6628125 1.14414062 -0.6628125 1.14414062 0 0 Z " fill="#43CFE7" transform="translate(582,343)"/>
<path d="M0 0 C1.11761719 0.02707031 1.11761719 0.02707031 2.2578125 0.0546875 C4.08909701 0.10164351 5.91971649 0.17338348 7.75 0.25 C7.75 0.58 7.75 0.91 7.75 1.25 C6.44675781 1.27126953 6.44675781 1.27126953 5.1171875 1.29296875 C-2.48384911 1.38404327 -2.48384911 1.38404327 -9.0625 4.6875 C-11.46642079 6.94198684 -11.46642079 6.94198684 -11.25 9.25 C-11.91 9.25 -12.57 9.25 -13.25 9.25 C-12.92488752 6.3239877 -12.43525339 4.51086703 -10.71875 2.09375 C-7.26359784 -0.48668009 -4.12538538 -0.18950534 0 0 Z " fill="#123A7A" transform="translate(485.25,564.75)"/>
<path d="M0 0 C2.00993705 3.01490557 2.72623341 5.2149927 3.625 8.6875 C3.88539063 9.68136719 4.14578125 10.67523438 4.4140625 11.69921875 C4.60742188 12.45847656 4.80078125 13.21773438 5 14 C2.40709283 13.00479704 1.2294135 12.42273047 -0.1171875 9.94140625 C-0.36726562 9.15636719 -0.61734375 8.37132812 -0.875 7.5625 C-1.14054688 6.78003906 -1.40609375 5.99757813 -1.6796875 5.19140625 C-2 3 -2 3 0 0 Z " fill="#37436C" transform="translate(574,484)"/>
<path d="M0 0 C1.4540625 0.0309375 1.4540625 0.0309375 2.9375 0.0625 C2.9375 1.7125 2.9375 3.3625 2.9375 5.0625 C1.2875 5.3925 -0.3625 5.7225 -2.0625 6.0625 C-2.7225 4.4125 -3.3825 2.7625 -4.0625 1.0625 C-3.0625 0.0625 -3.0625 0.0625 0 0 Z " fill="#4195D6" transform="translate(444.0625,524.9375)"/>
<path d="M0 0 C4.455 0.99 4.455 0.99 9 2 C9 2.33 9 2.66 9 3 C7.35 3.33 5.7 3.66 4 4 C3.67 5.32 3.34 6.64 3 8 C0.96166576 6.7260411 -1.03852126 5.38938077 -3 4 C-3 3.34 -3 2.68 -3 2 C-2.01 2 -1.02 2 0 2 C0 1.34 0 0.68 0 0 Z " fill="#4DA9DD" transform="translate(437,522)"/>
<path d="M0 0 C3.25696479 0.41755959 4.63443291 0.63443291 7 3 C6.01 3.33 5.02 3.66 4 4 C4 4.66 4 5.32 4 6 C3.01 6.33 2.02 6.66 1 7 C0.34 6.67 -0.32 6.34 -1 6 C-1.042721 4.33388095 -1.04063832 2.66617115 -1 1 C-0.67 0.67 -0.34 0.34 0 0 Z " fill="#4AE0E9" transform="translate(654,381)"/>
<path d="M0 0 C0.99 0 1.98 0 3 0 C3.33 2.64 3.66 5.28 4 8 C2.68 8.33 1.36 8.66 0 9 C-1.36623674 6.26752652 -1.128426 4.01801098 -1 1 C-0.67 0.67 -0.34 0.34 0 0 Z " fill="#172555" transform="translate(533,464)"/>
<path d="M0 0 C0.99 0.99 1.98 1.98 3 3 C1.02 5.97 1.02 5.97 -1 9 C-2.32 8.01 -3.64 7.02 -5 6 C-3.35 4.02 -1.7 2.04 0 0 Z " fill="#283362" transform="translate(387,681)"/>
<path d="M0 0 C1.67542976 0.28604898 3.34385343 0.61781233 5 1 C4.67 2.65 4.34 4.3 4 6 C2.35 6 0.7 6 -1 6 C-1.042721 4.33388095 -1.04063832 2.66617115 -1 1 C-0.67 0.67 -0.34 0.34 0 0 Z " fill="#F9FAFB" transform="translate(539,574)"/>
<path d="M0 0 C0.33 0.66 0.66 1.32 1 2 C1.66 2 2.32 2 3 2 C4 3.66666667 5 5.33333333 6 7 C6.886875 7.86625 7.77375 8.7325 8.6875 9.625 C11 12 11 12 11 15 C7.04 11.04 3.08 7.08 -1 3 C-0.67 2.01 -0.34 1.02 0 0 Z " fill="#171F50" transform="translate(405,559)"/>
<path d="M0 0 C1.98 1.65 3.96 3.3 6 5 C5.01 5.495 5.01 5.495 4 6 C3.34 5.67 2.68 5.34 2 5 C2.09539062 5.62648438 2.19078125 6.25296875 2.2890625 6.8984375 C2.39992188 7.71570313 2.51078125 8.53296875 2.625 9.375 C2.74101562 10.18710937 2.85703125 10.99921875 2.9765625 11.8359375 C2.98429687 12.55007813 2.99203125 13.26421875 3 14 C2.34 14.66 1.68 15.32 1 16 C0.08342019 10.61509359 -0.11138159 5.45769811 0 0 Z " fill="#2E5189" transform="translate(368,469)"/>
<path d="M0 0 C0.66666667 1.33333333 1.33333333 2.66666667 2 4 C2.53625 5.03125 3.0725 6.0625 3.625 7.125 C5 10 5 10 5 12 C4.01 12.33 3.02 12.66 2 13 C1.27249212 11.59308393 0.56859647 10.17393978 -0.125 8.75 C-0.51945313 7.96109375 -0.91390625 7.1721875 -1.3203125 6.359375 C-2 4 -2 4 -1.1171875 1.703125 C-0.74851562 1.14109375 -0.37984375 0.5790625 0 0 Z " fill="#32426D" transform="translate(572,518)"/>
<path d="M0 0 C-4.04998722 3.40198926 -8.63626649 6 -14 6 C-14 5.34 -14 4.68 -14 4 C-9.22642128 1.28608722 -5.65611463 -0.56561146 0 0 Z " fill="#2A4169" transform="translate(523,513)"/>
<path d="M0 0 C0.99 0.33 1.98 0.66 3 1 C2.34 3.97 1.68 6.94 1 10 C-0.32 10.33 -1.64 10.66 -3 11 C-2.01 7.37 -1.02 3.74 0 0 Z " fill="#34446A" transform="translate(551,475)"/>
<path d="M0 0 C4.24822374 0.47202486 6.19989709 2.96655518 9 6 C8.34 6.66 7.68 7.32 7 8 C4.36 6.02 1.72 4.04 -1 2 C-0.67 1.34 -0.34 0.68 0 0 Z " fill="#354771" transform="translate(590,502)"/>
<path d="M0 0 C0.66 0.33 1.32 0.66 2 1 C2 2.65 2 4.3 2 6 C0.35 6.33 -1.3 6.66 -3 7 C-3.66 6.01 -4.32 5.02 -5 4 C-4.34 4 -3.68 4 -3 4 C-3 3.34 -3 2.68 -3 2 C-2.01 1.34 -1.02 0.68 0 0 Z " fill="#5299D5" transform="translate(351,482)"/>
<path d="M0 0 C2.61885488 2.36944013 4.41866551 4.83733102 6 8 C5.67 8.99 5.34 9.98 5 11 C2 10 2 10 0.8125 7.75 C0.00061706 5.00208853 -0.16260121 2.84552111 0 0 Z " fill="#48AFD5" transform="translate(635,393)"/>
<path d="M0 0 C2.61527381 2.36620011 4.26440562 4.942048 6 8 C2 8 2 8 0.1875 6.25 C-1 4 -1 4 -0.6875 1.75 C-0.460625 1.1725 -0.23375 0.595 0 0 Z " fill="#283662" transform="translate(585,494)"/>
<path d="M0 0 C-1 3 -1 3 -3 4.875 C-5.27060644 7.28751935 -5.64008575 8.76077175 -6 12 C-6.66 11.34 -7.32 10.68 -8 10 C-8.99 10.66 -9.98 11.32 -11 12 C-9.56438314 8.81293058 -7.79733671 6.37830895 -5.5 3.75 C-4.8915625 3.04359375 -4.283125 2.3371875 -3.65625 1.609375 C-2 0 -2 0 0 0 Z " fill="#DCE7E9" transform="translate(538,458)"/>
<path d="M0 0 C0.99 0.33 1.98 0.66 3 1 C2.34 1 1.68 1 1 1 C0.9175 1.556875 0.835 2.11375 0.75 2.6875 C-0.23895541 5.73677919 -1.84757466 7.65189963 -4 10 C-4.66 10 -5.32 10 -6 10 C-4.6302836 6.00499382 -2.74277578 3.19990508 0 0 Z " fill="#41DEEC" transform="translate(358,430)"/>
<path d="M0 0 C1.98 0.495 1.98 0.495 4 1 C3.67 2.65 3.34 4.3 3 6 C1.68 5.67 0.36 5.34 -1 5 C-0.67 3.35 -0.34 1.7 0 0 Z " fill="#EAECF1" transform="translate(538,466)"/>
<path d="M0 0 C0.33 0 0.66 0 1 0 C1.1953125 6.0546875 1.1953125 6.0546875 1 8 C0.34 8.66 -0.32 9.32 -1 10 C-1.99 10 -2.98 10 -4 10 C-4 8.35 -4 6.7 -4 5 C-3.67 5.66 -3.34 6.32 -3 7 C-2.34 7 -1.68 7 -1 7 C-0.67 4.69 -0.34 2.38 0 0 Z " fill="#4CD2E4" transform="translate(658,405)"/>
<path d="M0 0 C1.32 0.33 2.64 0.66 4 1 C4 1.99 4 2.98 4 4 C2.03533587 5.06775224 0.03144641 6.06553465 -2 7 C-2.66 6.67 -3.32 6.34 -4 6 C-3.525625 5.566875 -3.05125 5.13375 -2.5625 4.6875 C-0.76313043 2.97690387 -0.76313043 2.97690387 0 0 Z " fill="#30D5EE" transform="translate(359,431)"/>
<path d="M0 0 C0 1.98 0 3.96 0 6 C-0.66 6 -1.32 6 -2 6 C-2.33 4.68 -2.66 3.36 -3 2 C-4.32 2 -5.64 2 -7 2 C-7.66 3.32 -8.32 4.64 -9 6 C-9 4.02 -9 2.04 -9 0 C-2.25 -1.125 -2.25 -1.125 0 0 Z " fill="#375A95" transform="translate(546,573)"/>
<path d="M0 0 C2.9719385 1.12451727 5.33440687 2.22293791 8 4 C8 4.66 8 5.32 8 6 C4.62537285 5.45276317 2.91765 4.9451 0 3 C0 2.01 0 1.02 0 0 Z " fill="#213666" transform="translate(598,508)"/>
<path d="M0 0 C2.04119788 1.61594832 4.04072937 3.2856382 6 5 C6 5.66 6 6.32 6 7 C2.73045798 6.43628586 1.17424117 5.50037734 -1 3 C-0.67 2.01 -0.34 1.02 0 0 Z " fill="#172044" transform="translate(466,503)"/>
<path d="M0 0 C0.66 0.33 1.32 0.66 2 1 C2 2.32 2 3.64 2 5 C0.35 5.33 -1.3 5.66 -3 6 C-2.625 3.5625 -2.625 3.5625 -2 1 C-1.34 0.67 -0.68 0.34 0 0 Z " fill="#36D2EB" transform="translate(443,504)"/>
<path d="M0 0 C0.99 0 1.98 0 3 0 C3.6875 2.3125 3.6875 2.3125 4 5 C2.5625 6.8125 2.5625 6.8125 1 8 C0.26919734 6.02253397 -0.39421747 4.01927511 -1 2 C-0.67 1.34 -0.34 0.68 0 0 Z " fill="#DEE2EA" transform="translate(574,479)"/>
<path d="M0 0 C-1.625 2 -1.625 2 -4 4 C-7.25 4.25 -7.25 4.25 -10 4 C-7.39928297 0.98864344 -3.94054294 -1.97027147 0 0 Z " fill="#D6DAE3" transform="translate(577,443)"/>
<path d="M0 0 C0.66 0.33 1.32 0.66 2 1 C2 1.66 2 2.32 2 3 C-4.75 2.25 -4.75 2.25 -7 0 C-4.30919898 -1.34540051 -2.86443593 -0.71610898 0 0 Z " fill="#404D7A" transform="translate(626,538)"/>
<path d="M0 0 C0.99 0 1.98 0 3 0 C4.26237731 2.52475462 4.09856404 4.31200466 4.0625 7.125 C4.05347656 8.03507813 4.04445313 8.94515625 4.03515625 9.8828125 C4.02355469 10.58148437 4.01195312 11.28015625 4 12 C3.67 12 3.34 12 3 12 C2.86722656 11.38511719 2.73445313 10.77023437 2.59765625 10.13671875 C2.42105469 9.32847656 2.24445313 8.52023437 2.0625 7.6875 C1.88847656 6.88699219 1.71445312 6.08648438 1.53515625 5.26171875 C1.00113841 2.854599 1.00113841 2.854599 0 0 Z " fill="#2E395D" transform="translate(303,686)"/>
<path d="M0 0 C3.24732932 1.62366466 3.70155136 4.75387839 5 8 C3.35 7.67 1.7 7.34 0 7 C0 4.69 0 2.38 0 0 Z " fill="#3F99D1" transform="translate(497,593)"/>
<path d="M0 0 C0.66 0 1.32 0 2 0 C2.33 0.99 2.66 1.98 3 3 C1.35 4.32 -0.3 5.64 -2 7 C-2 3 -2 3 0 0 Z " fill="#38C0E4" transform="translate(418,521)"/>
<path d="M0 0 C1.98 0.495 1.98 0.495 4 1 C3.49396008 3.16874252 3.00016187 4.99967627 2 7 C1.01 6.34 0.02 5.68 -1 5 C-0.67 3.35 -0.34 1.7 0 0 Z " fill="#4ADDEC" transform="translate(658,365)"/>
<path d="M0 0 C0.99 0.33 1.98 0.66 3 1 C1.71937515 2.7074998 0.38232443 4.37373596 -1 6 C-1.66 6 -2.32 6 -3 6 C-2.42655063 3.13275314 -2.1385485 2.1385485 0 0 Z " fill="#262F5C" transform="translate(302,701)"/>
<path d="M0 0 C0.99 0 1.98 0 3 0 C2.67 1.32 2.34 2.64 2 4 C0.68 4.33 -0.64 4.66 -2 5 C-2.33 3.68 -2.66 2.36 -3 1 C-2.67 1.66 -2.34 2.32 -2 3 C-1.34 3 -0.68 3 0 3 C0 2.01 0 1.02 0 0 Z " fill="#3795CD" transform="translate(360,469)"/>
<path d="M0 0 C1.65 0 3.3 0 5 0 C4.2884375 0.61875 4.2884375 0.61875 3.5625 1.25 C1.83733482 3.182185 1.43415125 4.48192275 1 7 C0.34 6.34 -0.32 5.68 -1 5 C-0.625 2.375 -0.625 2.375 0 0 Z " fill="#43E2E6" transform="translate(648,396)"/>
<path d="M0 0 C0.99 0 1.98 0 3 0 C5 3 5 3 5 6 C3.0625 5.25 3.0625 5.25 1 4 C0.25 1.875 0.25 1.875 0 0 Z " fill="#1B3060" transform="translate(575,530)"/>
<path d="M0 0 C0.66 0 1.32 0 2 0 C1.34 2.97 0.68 5.94 0 9 C-2 5 -2 5 -1.125 2.25 C-0.75375 1.5075 -0.3825 0.765 0 0 Z " fill="#4DD4E2" transform="translate(342,435)"/>
<path d="M0 0 C4.75 0.75 4.75 0.75 7 3 C6.01 3.99 5.02 4.98 4 6 C3.896875 5.360625 3.79375 4.72125 3.6875 4.0625 C3.460625 3.381875 3.23375 2.70125 3 2 C2.01 1.67 1.02 1.34 0 1 C0 0.67 0 0.34 0 0 Z " fill="#40A3DC" transform="translate(519,598)"/>
<path d="M0 0 C0.66 0 1.32 0 2 0 C0.70700306 2.88437779 -0.65941363 4.87219421 -3 7 C-3.66 6.67 -4.32 6.34 -5 6 C-3.38405168 3.95880212 -1.7143618 1.95927063 0 0 Z " fill="#25386A" transform="translate(614,543)"/>
<path d="M0 0 C0.66 0 1.32 0 2 0 C2.33 1.32 2.66 2.64 3 4 C1.68 4.33 0.36 4.66 -1 5 C-1 1 -1 1 0 0 Z " fill="#3DBEE5" transform="translate(431,517)"/>
<path d="M0 0 C0.33 0 0.66 0 1 0 C1 1.65 1 3.3 1 5 C-0.65 5.66 -2.3 6.32 -4 7 C-2.92598892 4.08482708 -2.22189824 2.22189824 0 0 Z " fill="#2A3E6C" transform="translate(549,510)"/>
<path d="M0 0 C0.99 0 1.98 0 3 0 C3 0.66 3 1.32 3 2 C2.01 2.495 2.01 2.495 1 3 C-0.13350534 5.01669827 -0.13350534 5.01669827 -1 7 C-1.625 4.625 -1.625 4.625 -2 2 C-1.34 1.34 -0.68 0.68 0 0 Z " fill="#42DAE9" transform="translate(440,503)"/>
<path d="M0 0 C0.66 0 1.32 0 2 0 C2.33 2.31 2.66 4.62 3 7 C2.01 6.67 1.02 6.34 0 6 C0 4.02 0 2.04 0 0 Z " fill="#4CA1D3" transform="translate(649,424)"/>
</svg>
